<?xml version="1.0" encoding="UTF-8"?>
<!DOCTYPE svg PUBLIC "-//W3C//DTD SVG 1.1//EN" "http://www.w3.org/Graphics/SVG/1.1/DTD/svg11.dtd">
<!-- Creator: CorelDRAW 2021 (64-Bit) -->
<svg xmlns="http://www.w3.org/2000/svg" xml:space="preserve" width="24.4762mm" height="24.952mm" version="1.1" style="shape-rendering:geometricPrecision; text-rendering:geometricPrecision; image-rendering:optimizeQuality; fill-rule:evenodd; clip-rule:evenodd"
viewBox="0 0 2447.62 2495.2"
 xmlns:xlink="http://www.w3.org/1999/xlink"
 xmlns:xodm="http://www.corel.com/coreldraw/odm/2003">
 <defs>
  <style type="text/css">
   <![CDATA[
    .fil4 {fill:#023859;fill-rule:nonzero}
    .fil3 {fill:#333333;fill-rule:nonzero}
    .fil5 {fill:#3F3D56;fill-rule:nonzero}
    .fil7 {fill:#CCCCCC;fill-rule:nonzero}
    .fil0 {fill:#E6E6E6;fill-rule:nonzero}
    .fil8 {fill:#F2F2F2;fill-rule:nonzero}
    .fil2 {fill:#FF6584;fill-rule:nonzero}
    .fil1 {fill:white;fill-rule:nonzero}
    .fil6 {fill:black;fill-rule:nonzero;fill-opacity:0.200000}
   ]]>
  </style>
 </defs>
 <g id="Layer_x0020_1">
  <metadata id="CorelCorpID_0Corel-Layer"/>
  <g id="_2137593973776">
   <path class="fil0" d="M1611.8 1012.39c-4.73,0 -8.57,3.83 -8.57,8.56l0 588c0,4.72 3.84,8.56 8.57,8.56l819.18 0c4.72,0 8.56,-3.84 8.56,-8.56l0 -588c0,-4.73 -3.84,-8.56 -8.56,-8.56l-819.18 0z"/>
   <path class="fil1" d="M2385.74 1064.97l0 417.88c-0.01,5.81 -4.71,10.51 -10.52,10.51l-709.36 0.01c-0.03,-0.01 -0.07,0 -0.1,0 -0.46,0 -0.93,-0.05 -1.38,-0.13 -5.18,-0.74 -9.03,-5.16 -9.03,-10.39l0 -417.88c0,-5.8 4.71,-10.51 10.51,-10.51l709.36 0c5.81,0 10.51,4.71 10.52,10.51l0 0z"/>
   <circle class="fil2" cx="2238.71" cy="1207.59" r="38.11"/>
   <circle class="fil3" cx="1627.71" cy="1033.51" r="12.56"/>
   <circle class="fil3" cx="2413.38" cy="1033.51" r="12.56"/>
   <circle class="fil3" cx="1627.71" cy="1596.39" r="12.56"/>
   <circle class="fil3" cx="2413.38" cy="1596.39" r="12.56"/>
   <circle class="fil4" cx="1889.06" cy="1311.47" r="45.72"/>
   <polygon class="fil5" points="1893.47,1449.18 1884.11,1449.18 1888.38,1304.58 "/>
   <polygon class="fil5" points="1889.2,1331.99 1899.25,1318.08 1889.06,1335.43 1887.96,1333.5 "/>
   <polygon class="fil5" points="1888.1,1346.03 1878.05,1332.12 1888.24,1349.48 1889.34,1347.55 "/>
   <circle class="fil4" cx="2308.48" cy="1311.47" r="45.72"/>
   <polygon class="fil5" points="2312.89,1449.18 2303.52,1449.18 2307.79,1304.58 "/>
   <polygon class="fil5" points="2308.62,1331.99 2318.67,1318.08 2308.48,1335.43 2307.38,1333.5 "/>
   <polygon class="fil5" points="2307.52,1346.03 2297.46,1332.12 2307.65,1349.48 2308.76,1347.55 "/>
   <circle class="fil4" cx="2021.51" cy="1271.58" r="67.53"/>
   <polygon class="fil5" points="2028.02,1474.98 2014.19,1474.98 2020.49,1261.41 "/>
   <polygon class="fil5" points="2021.72,1301.89 2036.57,1281.34 2021.51,1306.97 2019.89,1304.12 "/>
   <polygon class="fil5" points="2020.09,1322.64 2005.24,1302.09 2020.29,1327.72 2021.92,1324.87 "/>
   <circle class="fil4" cx="2186.19" cy="1245.79" r="67.53"/>
   <polygon class="fil5" points="2192.7,1449.18 2178.87,1449.18 2185.17,1235.62 "/>
   <polygon class="fil5" points="2186.4,1276.09 2201.24,1255.55 2186.19,1281.18 2184.56,1278.33 "/>
   <polygon class="fil5" points="2184.77,1296.84 2169.92,1276.29 2184.97,1301.93 2186.6,1299.08 "/>
   <circle class="fil4" cx="1759.06" cy="1245.79" r="67.53"/>
   <polygon class="fil5" points="1765.57,1449.18 1751.73,1449.18 1758.04,1235.62 "/>
   <polygon class="fil5" points="1759.26,1276.09 1774.11,1255.55 1759.06,1281.18 1757.43,1278.33 "/>
   <polygon class="fil5" points="1757.63,1296.84 1742.79,1276.29 1757.84,1301.93 1759.46,1299.08 "/>
   <path class="fil3" d="M2025.28 1493.37l-359.42 0c-0.03,-0.01 -0.07,0 -0.1,0 -0.46,0 -0.93,-0.05 -1.38,-0.13 -5.18,-0.74 -9.03,-5.16 -9.03,-10.39l0 -89.73c33.19,-5.56 66.88,-8.32 100.57,-8.32 0.52,0 1.27,0 1.79,0 127.59,0 234.31,36.56 261.08,85.51 4.02,7.02 6.26,14.95 6.49,23.05l0 0.01z"/>
   <path class="fil3" d="M2385.74 1462.51l0 20.34c-0.01,5.81 -4.71,10.51 -10.52,10.51l-397.66 0.01c12.76,-9.27 26.64,-17.01 41.22,-23.05 48.72,-20.89 117.43,-33.92 193.56,-33.92 66.15,-0.01 126.67,9.79 173.4,26.11z"/>
   <path class="fil0" d="M2067.58 9.68c-1.4,0 -2.78,0.35 -4.02,1l-723.22 384.71c-2.79,1.49 -4.54,4.4 -4.54,7.56 0,1.4 0.35,2.79 1,4.02l276.14 519.13c1.49,2.79 4.4,4.54 7.56,4.54 1.41,0 2.79,-0.35 4.02,-1l723.23 -384.71c2.79,-1.49 4.54,-4.4 4.54,-7.56 0,-1.4 -0.35,-2.78 -1,-4.02l-276.14 -519.13c-1.06,-2 -2.88,-3.51 -5.06,-4.16 -0.81,-0.25 -1.66,-0.38 -2.51,-0.38z"/>
   <path class="fil1" d="M2048.33 78.36l196.24 368.91c0.81,1.53 1.23,3.22 1.23,4.95 0,3.89 -2.15,7.46 -5.58,9.28l-626.26 333.13c-0.44,0.24 -0.91,0.45 -1.39,0.61 -1.14,0.41 -2.35,0.62 -3.56,0.62 -3.89,0 -7.46,-2.15 -9.28,-5.58l-196.24 -368.92c-0.81,-1.52 -1.23,-3.21 -1.23,-4.94 0,-3.89 2.14,-7.46 5.58,-9.28l626.26 -333.13c1.52,-0.81 3.22,-1.24 4.94,-1.24 3.89,0 7.47,2.15 9.29,5.59z"/>
   <circle class="fil2" cx="1629.75" cy="465.97" r="92.3"/>
   <path class="fil3" d="M2018.85 581.15l-399.74 212.64c-0.5,0.27 -1.02,0.5 -1.56,0.68l14.86 -428.05c0.22,-8.12 6.87,-14.6 14.99,-14.6 2.86,0 5.65,0.81 8.06,2.34l243.78 152.27 11.67 7.29 107.94 67.43z"/>
   <polygon class="fil6" points="2018.85,581.16 1882.37,653.75 1897.6,520.8 1898.69,511.22 1899.24,506.43 1910.91,513.72 "/>
   <path class="fil3" d="M2241.42 462.76l-345.74 183.91 15.23 -132.95 1.09 -9.58 19.85 -173.26c1.3,-11.36 14.79,-19.2 25.39,-15.52 0.71,0.26 1.41,0.56 2.09,0.9l282.09 146.5z"/>
   <circle class="fil3" cx="1364.31" cy="406.57" r="12.56"/>
   <circle class="fil3" cx="2057.96" cy="37.6" r="12.56"/>
   <circle class="fil3" cx="1628.65" cy="903.51" r="12.56"/>
   <circle class="fil3" cx="2322.3" cy="534.54" r="12.56"/>
   <path class="fil0" d="M2242.7 2496.17c0.71,0.18 1.45,0.28 2.19,0.28 3.88,0 7.28,-2.61 8.28,-6.36l151.17 -568.24c0.19,-0.72 0.28,-1.46 0.28,-2.2 0,-3.88 -2.61,-7.28 -6.36,-8.28l-791.65 -210.59c-0.72,-0.19 -1.46,-0.29 -2.2,-0.29 -3.88,0 -7.28,2.62 -8.28,6.37l-151.16 568.24c-0.19,0.71 -0.29,1.45 -0.29,2.2 0,3.88 2.62,7.28 6.37,8.27l791.65 210.6z"/>
   <path class="fil1" d="M2341.02 1950.57l-107.42 403.83c-1.23,4.6 -5.4,7.81 -10.16,7.81 -0.92,0 -1.82,-0.12 -2.71,-0.35l-685.52 -182.36c-0.48,-0.12 -0.95,-0.3 -1.4,-0.51 -3.88,-1.64 -6.41,-5.45 -6.41,-9.67 0,-0.9 0.12,-1.81 0.35,-2.68l107.43 -403.84c1.23,-4.6 5.4,-7.81 10.16,-7.81 0.91,0 1.82,0.12 2.7,0.35l685.52 182.36c4.61,1.23 7.81,5.4 7.81,10.16 0,0.92 -0.12,1.82 -0.35,2.7l0 0.01z"/>
   <path class="fil3" d="M2248.86 2297.04l-15.26 57.36c-1.23,4.6 -5.4,7.81 -10.16,7.81 -0.92,0 -1.82,-0.12 -2.71,-0.35l-685.52 -182.36c-0.48,-0.12 -0.95,-0.3 -1.4,-0.51 -3.88,-1.64 -6.41,-5.45 -6.41,-9.67 0,-0.9 0.12,-1.81 0.35,-2.68l15.26 -57.37 705.85 187.77z"/>
   <rect class="fil7" transform="matrix(0.117771 0.0313288 -0.0313288 0.117771 1836.9 2224.15)" width="926.04" height="105.83"/>
   <rect class="fil7" transform="matrix(0.117771 0.0313288 -0.0313288 0.117771 1586.06 2157.42)" width="926.04" height="105.83"/>
   <rect class="fil7" transform="matrix(0.117771 0.0313288 -0.0313288 0.117771 2087.74 2290.88)" width="926.04" height="105.83"/>
   <circle class="fil3" cx="1616.56" cy="1725.29" r="12.56"/>
   <circle class="fil3" cx="2375.83" cy="1927.27" r="12.56"/>
   <circle class="fil3" cx="1471.86" cy="2269.25" r="12.56"/>
   <circle class="fil3" cx="2231.13" cy="2471.23" r="12.56"/>
   <rect class="fil5" transform="matrix(-0.117753 -0.0313916 0.0313916 -0.117753 2140.88 2287.02)" width="514.68" height="81.7"/>
   <path class="fil4" d="M1644 2146.82l11.74 6.22 475.23 126.69 6.92 -8.82c11.99,-15.09 19.57,-33.24 21.84,-52.38 1.61,-14.3 0.12,-29.33 -9.95,-38.36l16.28 -146.1 -262.83 -70.42 -123.57 54.99c0,0 -47.76,-13.63 -82.46,11.9 -12.61,9.55 -22.07,22.71 -27.11,37.72l-5.52 16.61 -20.57 61.95z"/>
   <circle class="fil3" cx="1749.02" cy="2172.24" r="60.73"/>
   <circle class="fil7" cx="1749.02" cy="2172.24" r="31.96"/>
   <circle class="fil3" cx="2038.58" cy="2249.44" r="60.73"/>
   <circle class="fil7" cx="2038.58" cy="2249.44" r="31.96"/>
   <polygon class="fil1" points="1822.64,2019.81 1964.59,2057.63 1981.93,2062.24 2011.18,2070.05 2011.75,2067.91 2018.62,2042.19 2026.32,2013.3 2006.86,2008.12 1989.53,2003.49 1958.84,1995.31 1941.5,1990.69 1906.07,1981.25 "/>
   <polygon class="fil1" points="2034.28,2076.22 2109.3,2096.22 2113.24,2081.5 2120.08,2055.77 2124.44,2039.47 2113.45,2036.55 2096.13,2031.92 2049.4,2019.46 "/>
   <rect class="fil3" transform="matrix(-0.117753 -0.0313916 0.0313916 -0.117753 1995.03 2130.68)" width="81.7" height="155.22"/>
   <rect class="fil3" transform="matrix(-0.0313918 0.117754 -0.117754 -0.0313918 1856.75 2046.41)" width="81.7" height="155.22"/>
   <path class="fil3" d="M1848.89 2048.84l-1.06 -0.28c-11.1,-2.96 -17.7,-14.36 -14.75,-25.46l0 0c2.96,-11.1 14.37,-17.71 25.47,-14.75l1.06 0.28 -10.72 40.21z"/>
   <path class="fil3" d="M1664.58 2084.87c3.69,1.42 7.62,2.15 11.57,2.15 17.76,0 32.17,-14.4 32.17,-32.16 0,-9.33 -4.07,-18.22 -11.13,-24.32 -12.6,9.55 -22.06,22.71 -27.1,37.72l-5.51 16.61z"/>
   <polygon class="fil8" points="1989.53,2003.49 2011.75,2067.91 2018.62,2042.19 2006.86,2008.12 "/>
   <polygon class="fil8" points="2096.13,2031.92 2113.24,2081.5 2120.08,2055.77 2113.45,2036.55 "/>
   <polygon class="fil8" points="1941.5,1990.69 1964.59,2057.63 1981.93,2062.24 1958.84,1995.31 "/>
   <circle class="fil4" cx="129.38" cy="971.55" r="38.69"/>
   <path class="fil6" d="M145.71 936.51c8.09,7.33 12.71,17.73 12.71,28.65 0,21.33 -17.31,38.64 -38.65,38.64 -5.66,0 -11.27,-1.25 -16.39,-3.65 7.11,6.48 16.4,10.08 26.03,10.08 21.35,0 38.66,-17.31 38.66,-38.66 0,-15.04 -8.73,-28.72 -22.36,-35.05l0 -0.01z"/>
   <ellipse class="fil3" cx="1124.1" cy="1013.47" rx="95.12" ry="38.69"/>
   <path class="fil6" d="M1124.1 974.78c-3.27,0 -6.49,0.06 -9.67,0.2 47.99,1.97 85.44,18.45 85.44,38.49 0,20.04 -37.45,36.52 -85.44,38.49 3.18,0.13 6.4,0.2 9.67,0.2 52.53,0 95.12,-17.32 95.12,-38.69 0,-21.37 -42.59,-38.69 -95.12,-38.69z"/>
   <path class="fil3" d="M1248.24 1013.47l-477.21 0 0 -51.59c0,-5.34 -4.33,-9.67 -9.67,-9.67l-264.4 0c-5.34,0 -9.67,4.33 -9.67,9.67l0 51.59 -277.3 0 0 -32.24c0,-5.35 -4.33,-9.68 -9.67,-9.68l-141.88 0c-5.34,0 -9.67,4.33 -9.67,9.68l0 32.24 -38.7 0c0,0 0,0 -0.01,0 -5.33,0 -9.66,4.33 -9.66,9.66 0,0 0,0.01 0,0.01l0 635.21c0,0 0,0 0,0.01 0,5.33 4.33,9.66 9.66,9.66 0.01,0 0.01,0 0.02,0l1238.16 0c0,0 0.01,0 0.01,0 5.33,0 9.66,-4.33 9.66,-9.66 0,-0.01 0,-0.01 0,-0.02l0 -635.2c0,0 0,-0.01 0,-0.01 0,-5.33 -4.33,-9.66 -9.66,-9.66 0,0 -0.01,0 -0.01,0l0 0z"/>
   <path class="fil6" d="M1248.18 1620.65l-1238.16 0c0,0 -0.01,0 -0.01,0 -5.33,0 -9.66,-4.33 -9.66,-9.66 0,-0.01 0,-0.01 0,-0.02l0 45.14c0,0.01 0,0.01 0,0.02 0,5.33 4.33,9.66 9.66,9.66 0,0 0.01,0 0.01,0l1238.16 0c0.01,0 0.01,0 0.02,0 5.33,0 9.66,-4.33 9.66,-9.66 0,-0.01 0,-0.01 0,-0.02l0 -45.14c0,0.01 0,0.01 0,0.02 0,5.33 -4.33,9.66 -9.66,9.66 -0.01,0 -0.01,0 -0.02,0l0 0z"/>
   <polygon class="fil6" points="0.4,1432.64 1257.91,1432.64 1257.91,1310.11 0.4,1310.11 "/>
   <polygon class="fil6" points="0.4,1371.38 1257.91,1371.38 1257.91,1248.85 0.4,1248.85 "/>
   <rect class="fil4" x="0.4" y="1277.87" width="1257.51" height="122.53"/>
   <circle class="fil4" cx="629.16" cy="1339.13" r="245.05"/>
   <path class="fil6" d="M817.91 1182.87c22.05,37.58 33.72,80.44 33.72,124.03 0,135.31 -109.74,245.04 -245.04,245.04 -73,0 -142.25,-32.58 -188.77,-88.79 44,74.95 124.44,121.03 211.35,121.03 135.31,0 245.04,-109.74 245.04,-245.05 0,-57.04 -19.92,-112.36 -56.3,-156.27l0 0.01z"/>
   <circle class="fil3" cx="629.16" cy="1339.13" r="182.36"/>
   <path class="fil1" d="M771.03 1339.13c0,0.07 0,0.14 0,0.21 0,19.18 -3.94,38.19 -11.51,55.8 -4.08,9.53 -9.24,18.59 -15.32,26.98 -26.65,36.99 -69.5,58.92 -115.08,58.92 -78.34,0 -141.87,-63.53 -141.87,-141.87 0,-45.58 21.93,-88.43 58.9,-115.09 8.4,-6.07 17.47,-11.23 26.99,-15.3 17.68,-7.59 36.76,-11.52 56,-11.52 78.35,0 141.89,63.52 141.89,141.87l0 0z"/>
   <path class="fil6" d="M769.51 1318.46c-5.27,-36.05 -24.3,-68.73 -53.04,-91.14 14.56,22.79 22.32,49.31 22.32,76.37 0,19.24 -3.94,38.31 -11.52,55.98 -4.08,9.53 -9.24,18.59 -15.32,26.98 -26.63,36.97 -69.45,58.89 -115.01,58.89 -31.66,0 -62.45,-10.62 -87.38,-30.12 26.03,40.83 71.16,65.6 119.6,65.6 45.58,0 88.4,-21.91 115.04,-58.89 6.08,-8.4 11.24,-17.46 15.31,-26.99 7.61,-17.68 11.52,-36.74 11.52,-55.99 0,-6.92 -0.5,-13.87 -1.51,-20.69l-0.01 0z"/>
  </g>
 </g>
</svg>
