<?xml version="1.0" encoding="UTF-8"?>
<!DOCTYPE svg PUBLIC "-//W3C//DTD SVG 1.1//EN" "http://www.w3.org/Graphics/SVG/1.1/DTD/svg11.dtd">
<!-- Creator: CorelDRAW 2021 (64-Bit) -->
<svg xmlns="http://www.w3.org/2000/svg" xml:space="preserve" width="57.3802mm" height="33.6948mm" version="1.1" style="shape-rendering:geometricPrecision; text-rendering:geometricPrecision; image-rendering:optimizeQuality; fill-rule:evenodd; clip-rule:evenodd"
viewBox="0 0 5738.02 3369.48"
 xmlns:xlink="http://www.w3.org/1999/xlink"
 xmlns:xodm="http://www.corel.com/coreldraw/odm/2003">
 <defs>
  <style type="text/css">
   <![CDATA[
    .str2 {stroke:#333333;stroke-width:7.62;stroke-miterlimit:22.9256;stroke-opacity:0.101961}
    .str0 {stroke:#333333;stroke-width:16.93;stroke-miterlimit:22.9256}
    .str1 {stroke:#023859;stroke-width:7.62;stroke-miterlimit:22.9256}
    .fil2 {fill:none;fill-rule:nonzero}
    .fil4 {fill:#023859;fill-rule:nonzero}
    .fil9 {fill:#03588C;fill-rule:nonzero}
    .fil5 {fill:#333333;fill-rule:nonzero}
    .fil12 {fill:#3F3D56;fill-rule:nonzero}
    .fil8 {fill:#464353;fill-rule:nonzero}
    .fil6 {fill:#514E7F;fill-rule:nonzero}
    .fil3 {fill:#609BBF;fill-rule:nonzero}
    .fil13 {fill:#A1616A;fill-rule:nonzero}
    .fil14 {fill:#2A2A2A;fill-rule:nonzero}
    .fil15 {fill:black;fill-rule:nonzero;fill-opacity:0.050980}
    .fil7 {fill:black;fill-rule:nonzero;fill-opacity:0.101961}
    .fil16 {fill:#6C63FF;fill-rule:nonzero;fill-opacity:0.101961}
    .fil1 {fill:#505050;fill-rule:nonzero;fill-opacity:0.101961}
    .fil10 {fill:#609BBF;fill-rule:nonzero;fill-opacity:0.501961}
    .fil0 {fill:#F2F2F2;fill-rule:nonzero}
    .fil11 {fill:url(#id0);fill-rule:nonzero}
   ]]>
  </style>
  <linearGradient id="id0" gradientUnits="userSpaceOnUse" x1="2367.04" y1="3259.11" x2="2367.04" y2="52">
   <stop offset="0" style="stop-opacity:0.25098; stop-color:gray"/>
   <stop offset="0.541176" style="stop-opacity:0.121569; stop-color:gray"/>
   <stop offset="1" style="stop-opacity:0.101961; stop-color:gray"/>
  </linearGradient>
 </defs>
 <g id="Layer_x0020_1">
  <metadata id="CorelCorpID_0Corel-Layer"/>
  <path class="fil0" d="M5583.15 3129.9c-5.39,3.94 -10.92,7.73 -16.51,11.47 -20.55,13.82 -42.18,26.25 -64.42,37.14 -117.01,58.35 -261.15,86.83 -401.6,106.19 -314.97,43.49 -636.58,51.92 -956.84,60.2 -865.2,22.49 -1732.71,44.89 -2595.72,-6.89 -340.95,-20.45 -689.54,-54.86 -998.58,-159.6 -44.23,-14.98 -87.65,-31.5 -130.24,-49.56 -86.09,-36.66 -168.79,-81.19 -237.57,-134.26 -64.84,-49.88 -117.01,-107.24 -148.33,-172.38 -65.34,-135.76 -30.77,-288.23 43.79,-421.25 31.24,-53.93 66.21,-105.76 104.68,-154.56 57.52,-74.98 120.91,-147.55 178.87,-222.36 206.09,-266.44 340.56,-602.96 150.33,-875.88 -54.87,-78.41 -133.72,-147.24 -178.26,-229.08 -56.91,-104.75 -52.47,-221.01 -34.37,-334.18 2.3,-14.26 4.99,-28.43 7.44,-42.59 31.07,-167.44 88.93,-347.89 268.03,-452.43 186.04,-108.63 450.14,-103.15 681.12,-64.29 359.11,60.45 690.39,186.69 1024.91,300.7 334.52,114.02 684.9,218.16 1052.79,229.43 324.8,9.98 703.71,-64.19 919.28,-256.66 209.48,-186.94 603,-201.15 886.8,-88.23 194.52,77.5 339.91,217.11 401.21,374.07 12.31,31.35 21.39,64.17 26.7,97.44 3.66,22.77 5.59,45.89 5.59,68.96 0,7.65 -0.26,15.36 -0.62,22.96 -0.85,14.97 -2.5,30.18 -4.99,44.89 -47.38,309.89 -388.59,554.28 -595.98,831.09 -101.35,135.22 -172.92,297.62 -103.24,443.41 106.29,222.15 475.92,301.1 699.22,466.49 41.63,29.71 78.73,65.69 109.73,106.46 107.98,147.23 68.03,345.94 -93.22,463.3z"/>
  <path class="fil1" d="M4025.51 3245.62c0,-25.24 -602.12,-45.69 -1344.87,-45.69 -742.75,0 -1344.87,20.45 -1344.87,45.69 0,25.23 602.12,45.68 1344.87,45.68 742.75,0 1344.87,-20.45 1344.87,-45.68z"/>
  <path class="fil2 str0" d="M3749.14 3215.19c0,0 289.29,-366.44 266.89,-730.69 -9.42,-152.92 28.23,-305.14 112.38,-433.18 39.78,-60.49 85.7,-117.71 135.96,-169.86"/>
  <path class="fil3" d="M4251.55 1651.81c-20.45,50.97 12.42,235.72 12.42,235.72 0,0 151.57,-110.68 172.02,-161.6 4.73,-11.77 7.16,-24.38 7.16,-37.06 0,-54.91 -44.52,-99.44 -99.43,-99.44 -40.61,0 -77.15,24.69 -92.27,62.38l0.1 0z"/>
  <path class="fil3" d="M3985.76 1872.71c10.52,53.87 138.55,191.08 138.55,191.08 0,0 67.09,-175.27 56.56,-229.13 -9.56,-46.12 -50.22,-79.21 -97.33,-79.21 -54.89,0 -99.4,44.51 -99.4,99.4 0,5.99 0.55,11.99 1.61,17.87l0.01 -0.01z"/>
  <path class="fil3" d="M3798.77 2357.51c36.26,41.2 216.02,94.77 216.02,94.77 0,0 -30.58,-185.14 -66.84,-226.34 -18.86,-21.42 -46.04,-33.72 -74.59,-33.72 -54.87,0 -99.38,44.51 -99.38,99.38 0,24.17 8.83,47.52 24.79,65.66l0 0.25z"/>
  <path class="fil3" d="M3739.82 2756.18c28.77,46.73 196.91,130.18 196.91,130.18 0,0 1.15,-187.69 -27.63,-234.42 -18.01,-29.75 -50.26,-47.91 -85.03,-47.91 -54.89,0 -99.4,44.51 -99.4,99.4 0,18.65 5.25,36.94 15.14,52.74l0.01 0.01z"/>
  <path class="fil3" d="M4314.24 2151.47c-50.82,20.8 -235.76,-10.82 -235.76,-10.82 0,0 109.72,-152.32 160.4,-173.12 11.54,-4.52 23.87,-6.86 36.27,-6.86 54.89,0 99.4,44.52 99.4,99.41 0,39.78 -23.74,75.75 -60.31,91.39l0 0z"/>
  <path class="fil3" d="M4239.43 2616.82c-54.87,4.69 -221.75,-80.85 -221.75,-80.85 0,0 150.17,-112.52 204.84,-117.21 3.35,-0.35 6.73,-0.52 10.11,-0.52 54.89,0 99.4,44.52 99.4,99.41 0,52.25 -40.47,95.6 -92.61,99.17l0.01 0z"/>
  <path class="fil3" d="M4104.36 3059.18c-53.12,13.81 -232.17,-42.25 -232.17,-42.25 0,0 128.98,-136.26 182.1,-150.13 7.32,-1.68 14.81,-2.54 22.32,-2.54 54.89,0 99.4,44.51 99.4,99.4 0,44.29 -29.31,83.24 -71.84,95.51l0.19 0.01z"/>
  <path class="fil2 str0" d="M3751.64 3199.88c0,0 412.97,-217.71 540.06,-559.81 53.37,-143.65 149.63,-267.54 278.26,-350.49 60.97,-39.13 125.9,-72.83 193.17,-100.14"/>
  <path class="fil4" d="M4844.43 1974.16c-39.3,38.26 -84.14,220.51 -84.14,220.51 0,0 183.4,-39.91 222.75,-78.01 18.65,-18.64 29.13,-43.94 29.13,-70.31 0,-54.89 -44.51,-99.41 -99.4,-99.41 -25.41,0 -49.89,9.76 -68.34,27.22l0 0z"/>
  <path class="fil4" d="M4511.95 2068.48c-12.21,53.52 49.23,230.83 49.23,230.83 0,0 132.32,-133.02 144.64,-186.54 1.97,-7.88 2.97,-15.98 2.97,-24.1 0,-54.89 -44.52,-99.4 -99.41,-99.4 -47.11,0 -87.76,33.09 -97.32,79.21l-0.11 0z"/>
  <path class="fil4" d="M4144.66 2435.92c16.46,52.37 159.01,174.57 159.01,174.57 0,0 47.08,-181.65 30.62,-234.02 -12.34,-42.45 -51.24,-71.64 -95.44,-71.64 -54.89,0 -99.41,44.52 -99.41,99.41 0,10.91 1.8,21.76 5.32,32.07l-0.1 -0.39z"/>
  <path class="fil4" d="M3929.1 2776.53c7.38,54.36 127.23,198.75 127.23,198.75 0,0 77.11,-171.07 69.83,-225.49 -6.67,-49.27 -48.77,-86.04 -98.51,-86.04 -54.89,0 -99.41,44.51 -99.41,99.41 0,4.46 0.31,8.94 0.9,13.36l-0.04 0.01z"/>
  <path class="fil4" d="M4699.04 2456.32c-54.86,-1.55 -211.18,-105.44 -211.18,-105.44 0,0 161.95,-94.77 216.82,-93.27 53.2,2.25 95.18,46.06 95.18,99.31 0,54.89 -44.51,99.41 -99.4,99.41 -0.47,0 -0.98,-0.02 -1.42,-0.02l0 0.01z"/>
  <path class="fil4" d="M4442.08 2851.44c-51.88,-17.91 -169.93,-163.74 -169.93,-163.74 0,0 182.84,-42.05 234.76,-24.14 38.98,14.43 64.89,51.64 64.89,93.21 0,54.89 -44.51,99.4 -99.4,99.4 -10.29,0 -20.53,-1.6 -30.33,-4.73l0.01 0z"/>
  <path class="fil4" d="M4139.68 3201.12c-54.17,-8.87 -195.22,-132.67 -195.22,-132.67 0,0 173.17,-72.37 227.34,-63.49 47.25,8.59 81.6,49.76 81.6,97.8 0,54.89 -44.51,99.4 -99.4,99.4 -4.79,0 -9.59,-0.35 -14.32,-1.03l0 -0.01z"/>
  <polygon class="fil5" points="3787.85,3230.3 3743.61,3230.3 3420.01,1559.79 3378.51,3230.3 3331.53,3230.3 3278.96,1562.58 2963.64,3230.3 2913.86,3230.3 3128.18,1513.3 3135.16,1457.49 3555.57,1410.46 3568.64,1513.3 "/>
  <rect class="fil5" x="2627.22" y="1075.59" width="267.59" height="165.94"/>
  <path class="fil5" d="M4179.83 1003.02l161.8 -65.34 35.46 0c10.77,0 19.5,8.73 19.5,19.5l0 455.67c0,10.77 -8.73,19.5 -19.5,19.5l-35.46 0 -161.8 -67.38 0 -361.95z"/>
  <rect class="fil5" x="3848.99" y="1023.77" width="330.83" height="320.46"/>
  <rect class="fil6" x="3274.72" y="421.86" width="212.97" height="38.7"/>
  <rect class="fil4" x="3031.72" y="471.98" width="599.47" height="437.67"/>
  <polygon class="fil7" points="3031.72,909.7 3631.19,909.7 3631.19,857.83 3031.72,857.83 "/>
  <polygon class="fil7" points="3843.86,1344.22 3857.28,1344.22 3857.28,1023.76 3843.86,1023.76 "/>
  <polygon class="fil7" points="2803.54,1241.53 2894.81,1241.53 2894.81,1075.59 2803.54,1075.59 "/>
  <polygon class="fil7" points="3568.64,1513.3 3128.18,1513.3 3135.16,1457.49 3555.57,1410.46 "/>
  <path class="fil4 str1" d="M2865.18 866.11l930.4 0c29.47,0 53.36,23.89 53.36,53.36l0.01 532.14c-0.01,29.47 -23.9,53.36 -53.37,53.36l-930.4 0.01c-29.47,-0.01 -53.36,-23.9 -53.36,-53.37l-0.01 -532.14c0.01,-29.47 23.9,-53.36 53.37,-53.36z"/>
  <path class="fil4 str1" d="M4176.68 1003.02l3.15 0 0 361.95 -3.15 0c-14.29,0 -25.88,-11.59 -25.88,-25.89l0 -310.18c0,-14.29 11.59,-25.88 25.88,-25.88l0 0z"/>
  <path class="fil4 str1" d="M4341.63 937.83l33.56 0c11.82,0 21.4,9.58 21.4,21.4l0 451.98c0,11.81 -9.58,21.39 -21.4,21.39l-33.56 0 0 -494.77z"/>
  <polygon class="fil7" points="2627.22,1241.53 2674.95,1241.53 2674.95,1075.59 2627.22,1075.59 "/>
  <path class="fil4" d="M2609.22 1023.77l21.49 0c19.83,0 35.91,16.08 35.91,35.91l0 210.28c0,19.83 -16.08,35.91 -35.91,35.91l-21.49 0c-19.83,0 -35.91,-16.08 -35.91,-35.91l-0.01 -210.28c0.01,-19.83 16.09,-35.91 35.92,-35.91z"/>
  <circle class="fil8" cx="3031.72" cy="471.98" r="298.71"/>
  <circle class="fil9" cx="3031.72" cy="471.98" r="224.05"/>
  <circle class="fil8" cx="3585.55" cy="478.22" r="217.81"/>
  <circle class="fil9" cx="3585.55" cy="478.22" r="163.35"/>
  <circle class="fil3" cx="3568.64" cy="961.17" r="28.68"/>
  <path class="fil10" d="M3688.54 961.17c0,-15.84 -12.84,-28.68 -28.68,-28.68 -15.84,0 -28.68,12.84 -28.68,28.68 0,15.84 12.84,28.68 28.68,28.68 15.84,0 28.68,-12.84 28.68,-28.68z"/>
  <path class="fil11" d="M3298.91 1060.13l-2.05 -4.04c12.64,4.19 24.81,9.81 36.21,16.66 -4.99,-43.35 -171.23,-165.05 -201.15,-165.05 -29.93,0 -63.2,-51.67 -63.2,-51.67 0,0 -86.43,-13.32 -99.75,-27.43 -13.32,-14.12 -103.09,-5.89 -124.69,-0.9 -21.6,4.99 -54.86,-13.31 -54.86,-13.31 0,0 -18.31,-29.93 -41.55,-29.93 -23.25,0 -48.13,-33.32 -48.13,-33.32 0,0 -21.7,-19.95 -41.65,-23.34 -19.95,-3.39 -44.89,-24.94 -56.56,-41.65 -11.67,-16.71 -69.83,-24.94 -103.05,-19.95 -33.21,4.99 -123.04,-6.78 -123.04,-6.78 36.56,-16.66 45.39,-56.66 45.39,-56.66 -32.72,-1.7 -118.71,-73.92 -118.71,-73.92 0,0 3.54,23.35 7.63,55.91l-5.53 -7.13 -0.75 0.6c-1.01,-13.48 -1.53,-27.11 -1.53,-40.68 0,-9.68 0.33,-19.56 0.79,-29.18 0,-1.79 0.3,-3.59 0.4,-5.43 33.66,-29.46 52.96,-72.05 52.96,-116.8 0,-12.19 -1.44,-24.4 -4.28,-36.25 -0.9,-3.79 -1.95,-7.48 -3.14,-11.12 6.35,2.65 13.09,4.33 19.95,4.99l3.53 0c0.07,0 0.14,0 0.2,0 8.28,0 16.17,-3.52 21.7,-9.68l0 0c0.93,-1.18 1.76,-2.45 2.45,-3.79 0.16,-0.25 0.31,-0.52 0.44,-0.79 0.6,-1.23 1.1,-2.5 1.5,-3.8 0.14,-0.45 0.26,-0.92 0.35,-1.39 0.25,-1.02 0.45,-2.05 0.6,-3.09 0,-0.85 0,-1.75 0,-2.64 0,-0.9 0,-1.3 0,-1.95 -0.21,-7.67 -1.9,-15.23 -4.99,-22.24 -5.24,-12.87 -12.77,-25.59 -12.22,-39.51 0,-1.14 0.25,-2.24 0.4,-3.34 1.4,-10.92 7.13,-21.05 10.57,-31.57l0 -0.45c0.5,-1.54 0.9,-3.09 1.25,-4.64 0.16,-0.46 0.3,-0.92 0.4,-1.4 0.37,-1.82 0.62,-3.67 0.75,-5.53 0.12,-1.86 0,-0.25 0,-0.4 1.29,-20.85 -15.52,-39.06 -34.57,-47.48 -17.06,-7.59 -36.56,-9.63 -52.17,-19.95 -17.81,-11.72 -27.58,-32.02 -40.75,-48.83 -19.15,-24.44 -49.13,-42.7 -79.8,-39.21 -18.9,2.15 -36.06,12.07 -54.86,15.91 -28.58,5.94 -58.81,-2.69 -87.24,3.94 -6.9,1.15 -13.19,4.68 -17.76,9.98 -1.9,2.67 -3.14,5.77 -3.59,9.03l0 0c-0.19,1.49 -0.29,3.02 -0.29,4.54 0,1.51 0.1,3.04 0.29,4.54l0 0.24c0.33,2.87 0.85,5.74 1.55,8.53l0.45 1.75c0,0.6 0.25,1.15 0.4,1.75 0.15,0.59 0.65,2.34 0.95,3.49 0.55,1.94 0.99,3.89 1.49,5.88l0 0.7c0.45,2.04 0.9,4.09 1.25,6.18l0 0c0.79,4.31 1.34,8.69 1.6,13.07l-0.01 0c0.18,1.88 0.28,3.8 0.28,5.7 0,10.45 -2.73,20.74 -7.9,29.81 -12.47,19.95 -38.96,28.78 -50.48,49.58 -2.72,5.01 -4.42,10.54 -4.99,16.21l0 0c-0.17,1.57 -0.26,3.16 -0.26,4.74 0,0.31 0.01,0.64 0.01,0.95l0 0.75c0,1.64 0,3.29 0.45,4.98 -0.01,0.2 -0.02,0.4 -0.02,0.6 0,0.2 0.01,0.4 0.02,0.6 0.25,1.47 0.6,2.95 1,4.39 0,0.5 0.25,0.94 0.4,1.39 0.55,1.71 1.21,3.38 1.99,4.99l0 0c5.34,11.13 15.41,20.3 17.51,32.37l0 0c0,0.35 0,0.7 0.25,1.1 1.14,9.08 -2.6,17.95 -4.54,26.88 -0.26,1.09 -0.46,2.19 -0.6,3.3l0 -0.01c0,0.35 0,0.7 0,1.05 0,0.35 0,1.5 0,2.3 0,0.79 0,0.84 0,1.29 0,0.45 0,1.35 0,2 -0.01,0.23 -0.02,0.47 -0.02,0.7 0,0.23 0.01,0.46 0.02,0.69 0,0.65 0,1.3 0,1.9 0,0.6 0,0.9 0,1.35 0,0.44 0.3,1.24 0.5,1.84l0.35 1.25c0.23,0.59 0.5,1.18 0.8,1.74l0.55 1.1c0.36,0.61 0.76,1.19 1.19,1.75 0.19,0.27 0.39,0.54 0.6,0.8 0.68,0.8 1.45,1.52 2.3,2.14 6.88,4.99 17.6,3.69 23.24,9.98 0.63,0.75 1.17,1.59 1.6,2.49l0.3 0.6c0.4,0.87 0.73,1.8 0.94,2.74l0 0c0.4,1.87 0.6,3.78 0.6,5.69 0,1.9 -0.2,3.82 -0.6,5.68 -1.99,9.98 -6.23,19.06 -8.48,28.83 -0.45,2 -0.75,4.04 -1,6.09l0 0c0,0.94 0,1.84 -0.25,2.74l0 0.6c0,0.85 0,1.74 0,2.59 0,0.85 0,0.45 0,0.7 0,1.25 0,2.54 0.3,3.79 0.3,1.25 0,1.2 0.3,1.75l0.3 1.44c0,0.65 0.35,1.3 0.55,1.95l0.45 1.24c0.25,0.7 0.6,1.4 0.9,2.1 0.14,0.32 0.31,0.64 0.5,0.95 0.5,1.02 1.11,1.99 1.79,2.89 6.04,8.18 15.97,10.92 26.44,10.98 5.93,-0.04 11.86,-0.71 17.66,-2 1.3,3.04 2.64,6.09 4.09,9.03 7.22,14.54 16.7,27.89 28.07,39.49 0,1.55 -0.3,3.04 -0.5,4.64 -1.15,11.37 -2.54,23.59 -4.14,35.91 -12.92,-5.93 -22.89,-8.23 -26.83,-3.94 -16.71,18.36 0,81.7 0,81.7 0,0 -81.55,0 -101.5,18.3 -19.95,18.31 -56.51,0 -56.51,0 0,0 -74.82,8.38 -69.83,23.4 4.99,15.01 -39.9,0 -39.9,0 0,0 -31.62,3.34 -29.93,24.93 1.7,21.6 -48.23,31.63 -41.59,46.64 6.63,15.01 -29.93,24.94 -29.93,24.94 0,0 -36.56,-1.65 -23.24,19.95l0 0c0,0 -19.95,46.69 -36.56,49.88 -16.61,3.19 -38.26,41.65 -38.26,41.65 0,0 -64.04,11.67 -61.14,31.67 2.89,20 -98.46,163.09 -98.46,163.09 0,0 -33.27,68.58 -9.98,118.61 23.3,50.03 39.9,83.35 44.89,101.65 4.99,18.3 65.44,98.9 64.94,113.92 0,4.68 14.97,29.92 35.37,61.94l-5.99 6.19 -13.12 13.51c0,0 -41.59,103.35 8.28,108.34 42.15,4.19 72.42,7.23 87.79,3.04 2.49,-0.58 4.86,-1.62 6.98,-3.05l0.6 -0.44c18.16,26.78 31.02,45.48 31.02,45.48 0,0 1.8,-2.64 4.99,-7.18l4.99 7.13c0,0 3.99,-5.68 10.77,-14.96 -2.19,45.34 -2.49,90.03 -2.49,90.03 0,0 21.65,-3.35 11.67,96.66 -9.98,100 59.85,181.65 59.85,181.65l0 148.38 0 0c0,0 0,3.74 0.7,9.98 1.84,21.3 7.93,71.52 25.88,104.74 23.29,43.29 0,156.66 0,156.66 0,0 -1.54,92.47 4.04,207.79 0,3.14 0.35,6.38 0.5,9.57 -100.85,84.3 -209.03,196.02 -209.03,196.02 5.3,1.48 10.35,3.75 14.96,6.73l-6.03 7.73 -27.49 33.87 0 0 -21.24 26.23 0 0 33.66 103.7 36.76 -14.37c0,0 19.95,34.57 15.76,58.01 -0.63,4.23 -2.35,8.24 -4.98,11.62 -1.27,1.7 -2.16,3.66 -2.59,5.73 -9.63,37.56 30.52,199.51 94.21,206.54 0,0 21.6,7.13 28.53,-12.32 3.34,-9.37 3.29,-24.94 -4.19,-50.22 0,0 -33.66,-40.6 -11.87,-84.35 12.77,-25.58 33.87,-59.85 49.13,-84.04l6.28 -9.97c13.72,17.3 22.15,28.43 22.15,28.43l48.98 -52.67c1.05,2.24 2.09,4.44 3.19,6.53 3.64,7.31 7.91,14.39 12.67,21.06l33.21 131.72 13.42 -2.99c-0.3,3.19 -0.5,6.58 -0.7,9.97 -1.1,23.65 0,54.32 10.92,76.21 8.18,16.76 22,28.43 44.54,27.89 77.31,-1.9 99.76,-43.75 99.76,-43.75l0 -104.74 26.58 -5.93c0,0 -1.95,-230.13 -8.78,-358.47 0,-2.84 -0.3,-5.58 -0.45,-8.28 0,-0.4 0,-0.79 0,-1.14l170.73 -183.6 13.12 -5.24c109.73,-43.34 111.42,-155.01 111.42,-155.01 0,0 0,-61.65 13.27,-113.32 13.27,-51.67 1.7,-320.06 -23.24,-386.69 -24.94,-66.64 -33.27,-141.75 -33.27,-141.75 0,0 24.94,-34.92 0,-64 -7.03,-8.7 -12.91,-18.29 -17.45,-28.52l32.47 -5.34 18.7 -3.09 9.98 -1.7c-4.99,44.1 -5.84,77.96 5.99,86.04 36.6,24.94 159.6,-58.35 159.6,-58.35 -44.89,0 -69.83,-335.02 -60.7,-343.35 9.13,-8.33 22.74,-176.22 10.82,-206.15 -11.93,-29.92 41.84,-163.54 41.84,-163.54l8.28 -12.27 0 0c0,0 196.22,85.63 217.81,102.04 21.6,16.41 89.78,-39.9 101.4,-18.1 11.63,21.8 84.79,54.27 84.79,54.27 0,0 108.09,-10.93 119.71,15.76 11.62,26.68 81.49,89.17 81.49,89.17 0,-14.66 0.93,-29.35 2.65,-43.85 1.45,3.44 2.84,6.94 4.34,10.48 33.12,78.35 88.23,177.56 139.31,124.19 57.85,-60.64 13.81,-172.76 -14.47,-229.27zm-1610.62 492.58l0 0.94 -0.39 -0.4 0.39 -0.54zm-38.7 -384.45l-21.15 223 90.28 -95.42 -4.99 5.29 -42.94 -46.74c0,0 -21.65,-9.97 0,-28.32 21.64,-18.36 -36.56,-59.86 -36.56,-59.86 0,0 -1.7,-29.92 19.95,-38.3 21.64,-8.38 49.87,-63.34 49.87,-63.34l78.16 -39.91 0 0 0 0 -132.62 143.6zm409.94 1002.92c1.51,-1.41 3.19,-2.64 4.98,-3.65 9.33,-5.29 15.32,0.5 18.41,10.67 1.57,6.54 2.36,13.26 2.36,19.99 0,10.7 -2.02,21.33 -5.9,31.29 -11.63,26.69 16.65,133.37 16.65,133.37 0,0 -36.6,16.61 -43.24,48.33 -0.98,3.89 -2.68,7.59 -4.98,10.87 -0.45,-2.79 -0.85,-5.49 -1.25,-8.08 -3.24,-19.95 -4.98,-32.82 -4.98,-32.82 -3.65,-15.72 -5.52,-31.9 -5.52,-48.05 0,-10.11 0.76,-20.25 2.18,-30.26 5.29,-32.07 15.96,-97.21 19.95,-121.9 1,-5.98 1.55,-9.57 1.6,-9.97l-0.26 0.21z"/>
  <path class="fil8" d="M2291.35 547.3l10.78 -7.19 30.37 64.09 -11.67 13.72 -35.31 0c0,0 1.24,-34.91 2.09,-36.16 0.85,-1.25 3.74,-34.46 3.74,-34.46z"/>
  <path class="fil12" d="M2082.82 3087.76l0 137.16c0,0 -22.45,41.74 -99.76,43.64 -0.88,0.05 -1.78,0.07 -2.67,0.07 -18.29,0 -34.81,-10.98 -41.86,-27.86 -10.78,-21.84 -12.02,-52.47 -10.93,-76.06 0.56,-11.77 1.8,-23.6 3.73,-35.22l151.49 -41.73z"/>
  <path class="fil7" d="M2082.82 3087.76l0 42.44 -155.22 34.52c0.56,-11.78 1.8,-23.61 3.73,-35.23l151.49 -41.73z"/>
  <path class="fil4" d="M2109.4 3114.34l-194.52 43.24 -33.21 -131.37c-4.73,-6.65 -9.01,-13.7 -12.67,-21.01 -2.15,-4.19 -4.24,-8.62 -6.24,-13.26 -36.21,-82.84 -52.32,-232.27 -59.2,-359.41 -0.35,-6.43 -0.7,-12.82 -1,-19.1 -5.58,-115.02 -4.04,-207.29 -4.04,-207.29 0,0 23.29,-113.07 0,-156.26 -17.95,-33.32 -24.04,-83.39 -25.88,-104.74 -0.5,-6.34 -0.7,-9.98 -0.7,-9.98l3.59 -9.43 14.66 -38.8 161.3 0 93.77 79.36 14.27 12.07 -1.6 9.97c-4.04,24.64 -14.71,89.78 -19.95,121.6 -1.42,9.95 -2.16,20.09 -2.16,30.18 0,16.12 1.85,32.25 5.49,47.93 3.64,15.69 1.95,12.67 4.99,32.77 0.75,4.99 1.6,10.27 2.54,16.01 11.92,73.72 34.27,208.33 43.79,240.5 2.65,8.83 4.99,30.98 6.74,60.95 0.4,5.99 0.74,12.22 1.09,18.76 7,127.78 8.94,357.31 8.94,357.31z"/>
  <path class="fil7" d="M2082.82 3223.52l0 1.4c0,0 -22.45,41.74 -99.76,43.64 -0.88,0.05 -1.78,0.07 -2.67,0.07 -18.29,0 -34.81,-10.98 -41.86,-27.86 34.66,8.54 90.92,14.02 144.29,-17.25z"/>
  <path class="fil13" d="M3313.12 1298.84c-51.27,53.21 -106.13,-45.74 -139.3,-123.9 -18.61,-43.99 -30.28,-81.45 -30.28,-81.45l136.46 -57.75c0,0 8.38,13.31 18.91,34.41 28.28,56.36 72.32,168.19 14.21,228.69z"/>
  <path class="fil13" d="M2302.87 519.71c-0.37,9.08 -0.6,18.43 -0.6,27.55 0,40.21 3.95,80.35 11.63,119.8 7.67,39.44 -277.62,29.92 -252.68,-13.27 14.61,-25.34 24.09,-92.22 29.38,-143.35 3.84,-36.21 5.54,-64.49 5.54,-64.49 0,0 265.99,-106.38 226.09,-16.61 -11.92,26.78 -17.46,58.5 -19.36,90.37z"/>
  <polygon class="fil14" points="2326.32,1234 2289.01,1679.54 2460.23,1651.31 2430.31,1283.87 2440.28,1185.76 "/>
  <path class="fil12" d="M1739.27 3116.34c-21.8,43.64 11.87,84.14 11.87,84.14 7.48,25.28 7.53,40.74 4.19,49.87 -6.93,19.4 -28.53,12.27 -28.53,12.27 -67.93,-7.48 -109.08,-190.73 -91.62,-211.72 17.45,-21 -10.63,-69.23 -10.63,-69.23l-36.76 14.31 -33.66 -103.44 21.24 -26.19 27.49 -33.81 18.6 -22.95 185.79 193.88c0,0 -7.93,11.92 -18.85,29.02 -15.26,23.99 -36.36,58.41 -49.13,83.85z"/>
  <path class="fil7" d="M2100.62 2756.78l-231.62 248.43c-40.6,-79.3 -58.06,-238.41 -65.44,-372.73 43.14,-35.91 84.79,-66.83 116.31,-81.74 0,0 106.64,-77.16 129.13,-114.17 11.92,73.72 34.27,208.33 43.79,240.5 3.15,10.58 5.74,40.25 7.83,79.71z"/>
  <polygon class="fil7" points="2045.26,2166.24 1775.53,2125.69 1790.19,2086.88 1951.49,2086.88 "/>
  <path class="fil7" d="M2099.73 2738.02l-236.77 253.92c-36.41,-82.84 -52.52,-232.27 -59.4,-359.41 -0.35,-6.43 -0.7,-12.82 -1,-19.1 43.54,-36.31 85.69,-67.53 117.31,-82.6 0,0 99.5,-71.97 126.59,-110.22 0.75,4.98 1.59,10.27 2.54,16.01 11.92,73.71 34.27,208.33 43.79,240.5 2.65,8.78 4.84,30.93 6.94,60.9z"/>
  <path class="fil7" d="M1807.25 3003.56c0,0 -7.93,11.93 -18.85,29.03 -39.65,-50.12 -133.67,-165.54 -185.54,-199.95l18.6 -22.94 185.79 193.86z"/>
  <path class="fil4" d="M2408.66 2291.33c-13.27,51.57 -13.27,113.07 -13.27,113.07 0,0 -1.69,111.37 -111.42,154.62l-13.12 4.98 -453.87 486.95c0,0 -167.94,-219.46 -222.8,-232.77 0,0 221.1,-227.79 325.84,-277.67 0,0 126.39,-91.42 133.02,-122.99 6.63,-31.57 43.24,-48.23 43.24,-48.23 0,0 -28.28,-106.39 -16.66,-133.02 3.89,-9.93 5.91,-20.54 5.91,-31.21 0,-6.71 -0.81,-13.4 -2.36,-19.92 -3.09,-9.98 -9.08,-15.91 -18.41,-10.67 -1.79,1.01 -3.47,2.23 -4.98,3.64l-287.59 -43.24 0 -147.79c0,0 -69.83,-81.45 -59.85,-181.2 9.97,-99.75 -11.68,-96.41 -11.68,-96.41 0,0 1.05,-168.48 15.27,-182.55 14.21,-14.07 150.77,-78.51 150.77,-78.51l428.14 76.07 17.66 81.89c0,0 14.96,65.14 39.9,94.07 24.94,28.93 0,63.79 0,63.79 0,0 8.33,74.82 33.27,141.4 24.94,66.59 36.31,334.17 22.99,385.7z"/>
  <path class="fil7" d="M2322.22 429.34c-11.92,26.78 -17.45,58.7 -19.35,90.37 -28.08,24.33 -64.06,37.75 -101.23,37.75 -41.84,0 -81.94,-16.97 -111.05,-47.02 3.84,-36.21 5.54,-64.49 5.54,-64.49 0,0 266,-106.39 226.09,-16.61z"/>
  <path class="fil13" d="M2356.24 398.07c-0.03,85.34 -69.27,154.52 -154.61,154.52 -85.38,0 -154.62,-69.24 -154.62,-154.62 0,-85.38 69.24,-154.61 154.62,-154.61 71.44,0 133.62,48.98 150.33,118.45 2.83,11.83 4.28,23.99 4.28,36.16 0,0.02 0,0.08 0,0.1l0 0z"/>
  <path class="fil7" d="M2230.8 667.05c0,0 -111.12,-51.52 -118.06,-58.21 -6.93,-6.68 -237.46,585.25 -237.46,585.25l-64.84 294.28c0,0 345.8,147.93 420.61,127.98 74.81,-19.95 81.45,0 81.45,0 0,0 76.51,-428.94 101.45,-467.14 24.94,-38.21 -23.29,-427.3 -23.29,-427.3l-86.44 -113.12 -73.42 58.26z"/>
  <path class="fil7" d="M2230.8 647.1c0,0 -111.12,-51.52 -118.06,-58.21 -6.93,-6.68 -237.46,585.25 -237.46,585.25l-64.84 294.28c0,0 345.8,147.93 420.61,127.98 74.81,-19.95 81.45,0 81.45,0 0,0 76.51,-428.94 101.45,-467.15 24.94,-38.2 -23.29,-427.29 -23.29,-427.29l-86.44 -113.12 -73.42 58.26z"/>
  <path class="fil9" d="M2413.65 1139.23c-4.99,7.93 -12.52,32.57 -20.95,66.69 -5.89,23.74 -12.27,52.02 -18.8,82.44 -29.43,137.31 -61.65,318.07 -61.65,318.07 0,0 -2.05,-6.09 -16.46,-8.18 -11.67,-1.7 -31.52,-0.75 -64.84,8.18 -74.82,19.95 -420.66,-128.04 -420.66,-128.04l9.97 -44.89 54.87 -249.38c0,0 231.13,-591.89 237.76,-585.2 4.04,4.04 47.23,24.93 80.15,40.45 21,9.97 37.91,17.7 37.91,17.7l69.83 -55.16 3.84 -3.04 86.03 113.07c0,0 47.94,389.03 23,427.29z"/>
  <path class="fil7" d="M2149.3 715.28c9.98,38.35 -13.26,101.4 -13.26,101.4 0,0 -79.81,196.21 -103.1,286.89 -23.29,90.67 -156.51,273.42 -156.51,273.42 0,0 -19.55,19.6 -46.93,46.89 -3.05,3.04 -6.24,6.18 -9.43,9.47l54.86 -249.38c0,0 231.13,-591.88 237.76,-585.2 4.04,4.04 47.24,24.94 80.16,40.45 -20.6,18.75 -50.18,50.67 -43.55,76.06z"/>
  <path class="fil5" d="M2139.33 715.28c9.97,38.35 -13.27,101.4 -13.27,101.4 0,0 -79.8,196.21 -103.09,286.89 -23.29,90.67 -156.51,273.42 -156.51,273.42 0,0 -19.56,19.6 -46.94,46.89 -3.24,3.24 -6.63,6.58 -9.97,9.97 -53.47,53.22 -128.64,127.84 -152.13,149.63 -3.44,3.24 -5.78,5.34 -6.78,6.04 -2.12,1.42 -4.49,2.45 -6.98,3.03 -15.36,4.2 -45.64,1.15 -87.79,-3.04 -49.87,-4.99 -8.28,-108.03 -8.28,-108.03l13.12 -13.52 11.97 -12.37 135.86 -139.8 9.98 -10.52 41.55 -42.85 21.14 -222.45 0.5 -5.33c0,0 -6.18,-14.12 -15.71,-35.66 -25.38,-58.31 -75.26,-170.83 -93.52,-207.19 -2.09,-4.24 -3.74,-7.38 -4.98,-9.33 0,-0.25 -0.25,-0.5 -0.4,-0.69 -13.32,-21.6 23.24,-19.95 23.24,-19.95 0,0 36.61,-9.98 29.93,-24.94 -6.69,-14.96 43.24,-24.94 41.59,-46.54 -1.64,-21.6 29.93,-24.94 29.93,-24.94 0,0 44.89,14.97 39.9,0 -4.99,-14.96 69.83,-23.29 69.83,-23.29 0,0 36.56,18.31 56.51,0 19.95,-18.3 101.79,-18.25 101.79,-18.25 0,0 -16.7,-63.2 0,-81.5 16.71,-18.31 142,81.5 142,81.5 0,0 -72.47,53.11 -62.49,91.42z"/>
  <path class="fil7" d="M1723.71 1566.47c0,0 138,194.52 234.42,131.38 96.41,-63.15 -129.68,-227.79 -129.68,-227.79l-104.74 96.41z"/>
  <path class="fil13" d="M1723.71 1556.5c0,0 138,194.52 234.42,131.37 96.41,-63.14 -129.68,-227.78 -129.68,-227.78l-104.74 96.41z"/>
  <path class="fil7" d="M2385.87 1663.58c10.52,-91.82 41.05,-229.78 16.16,-271.63 -12.32,-20.75 -21.45,-60.3 -28.13,-103.59 -3.59,-23.29 -6.44,-47.68 -8.73,-70.82 -6.09,-61.4 -8.03,-113.97 -8.03,-113.97 0,0 -59.85,-266.94 -48.23,-321.8 7.28,-34.32 -1.1,-120.31 -8.38,-179.86l3.84 -3.04 86.04 113.07c0,0 48.18,389.03 23.24,427.29 -4.99,7.93 -12.52,32.57 -20.95,66.69l47.58 -19.95 -9.97 98.1 29.92 367.45 -74.36 12.06z"/>
  <path class="fil5" d="M2302.13 540.11c0,0 85.98,72.07 118.7,73.72 0,0 -8.83,39.9 -45.39,56.56 0,0 89.78,11.87 123.05,6.73 33.27,-5.13 91.42,3.25 103.05,19.95 11.62,16.71 36.85,38.16 56.8,41.45 19.95,3.3 41.65,23.3 41.65,23.3l-146.39 216.11c0,0 -53.21,133.02 -41.59,162.95 11.62,29.92 -1.7,197.86 -10.83,206.14 -9.12,8.27 15.81,342.5 60.7,342.5 0,0 -122.99,83.14 -159.6,58.2 -36.61,-24.94 46.58,-294.27 9.97,-355.82 -36.6,-61.55 -44.88,-288.38 -44.88,-288.38 0,0 -59.86,-266.89 -48.19,-321.76 11.67,-54.86 -17.05,-241.65 -17.05,-241.65z"/>
  <path class="fil7" d="M3298.91 1070.15c-44.44,-13.86 -112.53,-14.26 -125.09,104.74 -18.61,-43.99 -30.28,-81.44 -30.28,-81.44l136.46 -57.76c0,0 8.38,13.36 18.91,34.46z"/>
  <path class="fil5" d="M2618.44 751.84l81.55 9.98c0,0 24.94,33.26 48.13,33.26 23.19,0 41.55,29.93 41.55,29.93 0,0 33.26,18.25 54.86,13.27 21.6,-4.99 111.37,-13.22 124.69,0.89 13.32,14.12 99.76,27.39 99.76,27.39 0,0 33.26,51.52 63.19,51.52 29.93,0 196.16,121.4 201.15,164.59 0,0 -164.59,-104.74 -166.24,125.54 0,0 -69.83,-62.34 -81.5,-88.93 -11.67,-26.58 -119.7,-15.76 -119.7,-15.76 0,0 -73.12,-32.47 -84.79,-54.07 -11.67,-21.59 -79.8,34.42 -101.4,18.01 -21.6,-16.41 -217.81,-101.8 -217.81,-101.8l-60.7 -114.06 117.26 -99.76z"/>
  <circle class="fil4" cx="2242.42" cy="939.73" r="14.11"/>
  <circle class="fil4" cx="2228.31" cy="1234.44" r="14.11"/>
  <circle class="fil4" cx="2242.42" cy="1079.33" r="14.11"/>
  <circle class="fil4" cx="2201.67" cy="1389.56" r="14.11"/>
  <path class="fil7" d="M1755.58 3250.6c-6.94,19.4 -28.53,12.27 -28.53,12.27 -67.93,-7.48 -109.08,-190.73 -91.62,-211.72 17.45,-21 -10.88,-69.48 -10.88,-69.48l-36.76 14.31 -33.66 -103.44 21.24 -26.19c21.15,36.66 51.43,89.38 58.56,102.85 12.41,25.57 18.86,53.67 18.86,82.11 0,2.55 -0.07,5.15 -0.16,7.67 -1.14,32.42 36.46,187.43 102.95,191.62z"/>
  <path class="fil7" d="M2351.95 361.61c-3.39,-1.15 -6.78,-2.5 -9.97,-3.84 -11.43,-4.64 -23.44,-9.98 -30.38,-19.95 -6.33,-9.28 -8.38,-22.35 -18.25,-27.64 -11.38,-6.08 -24.94,2.15 -37.26,4.99 -14.66,3.44 -29.93,-0.65 -44.19,-5.88 -21.25,-7.83 -50.92,-22.25 -72.72,-7.33 -16.96,11.57 -10.37,36.11 -14.71,53.61 -6.74,27.19 -35.61,44.89 -41.05,72.37 -2.44,12.12 -0.85,26.94 -10.67,34.47 -2.87,2.04 -6.14,3.47 -9.58,4.19 -10.49,-21.28 -15.98,-44.74 -15.98,-68.47 0,-85.37 69.23,-154.61 154.61,-154.61 71.41,0 133.55,48.92 150.3,118.33l-0.15 -0.24z"/>
  <path class="fil5" d="M2211.8 299.16c14.11,5.24 29.48,9.33 44.19,5.84 12.52,-2.95 25.84,-11.18 37.21,-4.99 9.97,5.33 11.97,18.35 18.25,27.63 6.94,9.98 18.96,15.56 30.43,19.95 8.55,3.97 17.72,6.56 27.09,7.58 0.98,0.1 1.98,0.15 2.98,0.15 8.51,0 16.65,-3.54 22.45,-9.77 8.88,-10.73 6.18,-26.79 0.9,-39.6 -5.29,-12.82 -12.77,-25.59 -12.22,-39.46 0.65,-16.46 12.57,-30.77 13.56,-47.18 1.3,-20.8 -15.51,-38.95 -34.56,-47.38 -17.06,-7.53 -36.56,-9.63 -52.17,-19.95 -17.81,-11.67 -27.58,-31.92 -40.75,-48.68 -19.15,-24.39 -49.13,-42.6 -79.8,-39.1 -18.9,2.14 -36.06,12.02 -54.86,15.86 -28.58,5.93 -58.81,-2.7 -87.24,3.94 -6.86,1.07 -13.15,4.52 -17.76,9.72 -6.98,9.38 -3.39,22.5 -0.29,33.77 5.53,20.3 7.87,43.29 -3.15,61.14 -12.47,20.21 -38.95,28.73 -50.47,49.48 -3.53,6.46 -5.39,13.71 -5.39,21.08 0,6.51 1.45,12.95 4.24,18.83 5.49,11.47 16.11,20.79 17.76,33.41 1.14,9.08 -2.6,17.91 -4.54,26.79 -1.95,8.87 -1.4,19.95 5.93,24.94 7.34,4.98 17.61,3.74 23.25,9.97 2.28,3.32 3.51,7.27 3.51,11.31 0,1.98 -0.29,3.95 -0.87,5.85 -2,9.97 -6.24,19 -8.48,28.77 -0.99,3.29 -1.49,6.71 -1.49,10.14 0,6.59 1.85,13.06 5.33,18.65 9.68,13.06 29.23,12.27 44.89,8.77 4.52,-0.72 8.83,-2.43 12.62,-4.99 9.97,-7.53 8.23,-22.34 10.67,-34.46 5.44,-27.43 34.32,-45.24 41.05,-72.37 4.34,-17.51 -2.25,-42.1 14.71,-53.67 22.04,-14.21 51.77,0.2 73.02,8.03z"/>
  <path class="fil7" d="M2187.56 2103.49c0,0 156.56,99.76 161.55,138.01l-161.55 -138.01z"/>
  <path class="fil7" d="M2179.53 2183.3c0,0 179.55,86.43 169.58,116.36l-169.58 -116.36z"/>
  <path class="fil7" d="M2167.61 2259.76c0,0 101.45,53.21 108.08,84.79l-108.08 -84.79z"/>
  <path class="fil7" d="M2210.85 2379.46c0,0 66.49,58.21 79.8,43.24 13.32,-14.96 -79.8,-43.24 -79.8,-43.24z"/>
  <path class="fil7" d="M2117.73 2416.07c0,0 51.82,83.09 26.88,88.08 -24.93,4.99 -26.88,-88.08 -26.88,-88.08z"/>
  <path class="fil7" d="M1890.25 939.73c0,0 -88.14,53.16 -61.55,66.48 26.58,13.32 61.55,-66.48 61.55,-66.48z"/>
  <path class="fil7" d="M1890.25 743.51c0,0 -89.78,164.59 -48.23,152.97 41.54,-11.62 48.23,-152.97 48.23,-152.97z"/>
  <path class="fil7" d="M2844.28 908.1c0,0 -54.86,64.54 -44.89,99.76l44.89 -99.76z"/>
  <path class="fil7" d="M2987.53 939.73c0,0 -82.35,73.11 -70.28,81.44l70.28 -81.44z"/>
  <path class="fil7" d="M3038.8 1029.55c0,0 -8.33,48.08 4.99,49.88l-4.99 -49.88z"/>
  <path class="fil15" d="M2140.18 2043.99c-21.2,27.43 -21.2,76.06 -30.78,96.01 -5.24,10.98 -16.91,29.93 -26.38,45.29 -3.09,-9.98 -9.08,-15.91 -18.41,-10.67 -6.13,-45.74 -16.96,-124.7 -20.45,-140.61 -4.98,-22.44 49.88,-82.29 49.88,-82.29 0,0 53.62,11.22 67.33,38.65 13.72,27.43 0,26.24 -21.19,53.62z"/>
  <path class="fil7" d="M1863.36 1466.77c-59.85,8.28 -171.22,167.88 -171.22,167.88 0,0 -14.62,-21.24 -34.92,-50.92 -25.53,-37.66 -59.85,-88.98 -84.79,-127.88l146.14 -150.73 26.58 28.63c0,0 51.58,51.52 51.58,61.5 0,3.89 9.97,15.71 22.64,28.63 19.4,20.1 43.99,42.89 43.99,42.89z"/>
  <path class="fil7" d="M1672.48 791.79c-2.09,-4.24 -3.74,-7.38 -4.98,-9.33l64.44 4.29 34.16 212.08c-25.48,-58.16 -75.36,-170.68 -93.62,-207.04z"/>
  <path class="fil7" d="M1809.44 1434c-53.46,53.22 -128.63,127.84 -152.12,149.63 -3.44,3.24 -5.78,5.34 -6.78,6.04 -2.12,1.42 -4.49,2.45 -6.98,3.03 -23.49,-34.51 -57.01,-84.24 -82.95,-124.69l11.97 -12.37 135.96 -139.85 16.81 18.11c0,0 51.57,51.52 51.57,61.49 0,4.79 16.11,22.15 32.52,38.61z"/>
  <path class="fil5" d="M1742.01 786.75l-74.81 -4.98c0,0 -19.95,46.53 -36.56,49.87 -16.61,3.34 -38.26,41.55 -38.26,41.55 0,0 -64.04,11.67 -61.25,31.62 2.8,19.95 -98.45,162.65 -98.45,162.65 0,0 -33.27,68.43 -9.98,118.31 23.29,49.87 39.9,83.14 44.89,101.4 4.99,18.25 64.04,98.1 63.54,113.06 -0.49,14.97 150.93,234.42 150.93,234.42 0,0 111.37,-159.6 171.23,-167.93 0,0 -66.49,-61.5 -66.49,-71.47 0,-9.98 -51.17,-61.5 -51.17,-61.5l-64.84 -69.83c0,0 -21.65,-9.98 0,-28.28 21.64,-18.3 -36.56,-59.85 -36.56,-59.85 0,0 -1.7,-29.93 19.95,-38.26 21.64,-8.33 49.87,-63.14 49.87,-63.14l78.16 -39.9 -40.2 -247.74z"/>
  <path class="fil7" d="M1456.32 1117.58c0,0 89.78,-18.25 91.42,-6.63 1.65,11.62 -91.42,6.63 -91.42,6.63z"/>
  <path class="fil7" d="M1531.13 1208.21c0,0 76.12,9.98 72.77,26.23 -3.34,16.26 -72.77,-26.23 -72.77,-26.23z"/>
  <path class="fil7 str2" d="M1594.03 925.56c0,0 73.17,103.59 83.14,82.15l-83.14 -82.15z"/>
  <g id="_2633550971744">
   <path class="fil7" d="M2033.69 153.67c0.04,-1.36 0.08,-2.76 0.08,-4.13 0,-10.71 -1.54,-21.37 -4.56,-31.64 -1.44,-4.87 -2.55,-9.92 -3.29,-14.95 -0.12,1.52 -0.18,3.08 -0.18,4.61 0,6.92 1.17,13.8 3.46,20.32 2.36,8.43 3.88,17.08 4.5,25.8l-0.01 -0.01z"/>
   <path class="fil7" d="M2383.47 263.4c1.95,-14.96 12.22,-28.58 13.17,-43.89 0.05,-0.76 0.07,-1.54 0.07,-2.3 0,-1.79 -0.12,-3.57 -0.37,-5.33 -1.94,15.46 -12.66,29.17 -13.26,44.89 -0.01,0.35 -0.02,0.72 -0.02,1.08 0,1.85 0.14,3.72 0.42,5.55l-0.01 0z"/>
   <path class="fil7" d="M2394.4 335.72c-5.8,6.23 -13.94,9.77 -22.45,9.77 -1,0 -2,-0.05 -2.99,-0.14 -9.36,-1.03 -18.53,-3.61 -27.08,-7.59 -11.47,-4.64 -23.49,-9.98 -30.43,-19.95 -6.33,-9.28 -8.38,-22.3 -18.25,-27.63 -11.37,-6.09 -24.94,2.14 -37.26,4.99 -14.66,3.49 -29.93,-0.6 -44.14,-5.84 -21.25,-7.83 -50.97,-22.25 -72.77,-7.38 -16.96,11.57 -10.37,36.16 -14.71,53.66 -6.74,27.14 -35.62,44.89 -41.05,72.37 -2.45,12.12 -0.85,26.94 -10.68,34.47 -3.8,2.58 -8.13,4.28 -12.66,4.99 -15.86,3.49 -35.41,4.29 -44.89,-8.78 -2.74,-3.73 -4.46,-8.12 -4.99,-12.71 -0.27,1.67 -0.41,3.36 -0.41,5.05 0,6.29 1.88,12.43 5.4,17.64 9.67,13.07 29.23,12.27 44.89,8.78 4.53,-0.71 8.86,-2.42 12.66,-4.99 9.98,-7.53 8.23,-22.34 10.68,-34.46 5.43,-27.44 34.31,-45.24 41.05,-72.37 4.34,-17.51 -2.25,-42.1 14.71,-53.67 21.79,-14.97 51.52,-0.45 72.77,7.38 14.11,5.24 29.48,9.33 44.14,5.84 12.57,-2.95 25.89,-11.18 37.26,-4.99 9.97,5.34 11.92,18.35 18.25,27.63 6.94,9.98 18.96,15.56 30.43,19.95 8.55,3.97 17.72,6.56 27.09,7.58 0.98,0.09 1.98,0.15 2.98,0.15 8.51,0 16.65,-3.54 22.45,-9.77 3.8,-5.09 5.86,-11.29 5.86,-17.64 0,-1.76 -0.16,-3.52 -0.47,-5.26 -0.53,4.73 -2.4,9.22 -5.39,12.92l0 0z"/>
   <path class="fil7" d="M1992.19 301.65c-1.64,-12.61 -12.27,-21.94 -17.75,-33.41 -2.06,-4.31 -3.38,-8.97 -3.89,-13.72 -0.2,1.68 -0.3,3.38 -0.3,5.08 0,6.43 1.44,12.8 4.19,18.61 5.34,11.12 15.41,20.3 17.51,32.32 0.3,-1.74 0.45,-3.53 0.45,-5.3 0,-1.2 -0.07,-2.4 -0.2,-3.58l-0.01 0z"/>
   <path class="fil7" d="M2019.92 379.56c0.43,-1.58 0.64,-3.22 0.64,-4.87 0,-3.92 -1.21,-7.74 -3.48,-10.94 -5.63,-6.43 -16.35,-4.99 -23.24,-9.98 -3.68,-2.91 -6.04,-7.19 -6.53,-11.86 -1.1,8.13 0,17.1 6.53,21.84 6.54,4.74 17.61,3.74 23.25,9.98 1.4,1.68 2.37,3.69 2.84,5.83l-0.01 0z"/>
  </g>
  <path class="fil9" d="M835.95 2962.77c0,0 -206.29,-12.47 -181.99,132.12 0,0 -4.99,25.54 18.35,37.16 0,0 0.35,-10.73 21.15,-7.09 5.14,0.85 10.38,1.29 15.59,1.29 2.27,0 4.55,-0.08 6.81,-0.24 10.11,-0.69 19.75,-4.65 27.43,-11.27l-0.01 0c0,0 58.01,-23.99 80.55,-118.76 0,0 16.66,-20.69 16.01,-25.98l-34.91 14.96c0,0 11.92,24.94 2.54,45.99 0,0 -1.14,-44.89 -7.83,-44.04 -1.34,0.25 -18.1,8.73 -18.1,8.73 0,0 20.5,43.74 4.99,75.56 0,0 5.88,-53.92 -11.43,-72.42l-24.48 14.31c0,0 23.94,45.19 7.68,82.1 0,0 4.19,-56.56 -12.82,-78.61l-22.25 17.31c0,0 22.5,44.54 8.78,75.16 0,0 -1.79,-65.88 -13.56,-70.82 0,0 -19.46,17.11 -22.4,24.14 0,0 15.36,32.37 5.84,49.43 0,0 -5.84,-43.89 -10.68,-44.09 0,0 -19.35,29.07 -21.34,48.98 0,0 0.85,-29.63 16.66,-51.78 -11.15,2.13 -21.46,7.48 -29.63,15.36 -8.17,7.89 2.99,-20.55 34.41,-22.34 0,0 16.01,-22.05 20.3,-23.39 0,0 -31.27,-2.6 -50.17,5.78 0,0 16.66,-19.35 55.86,-10.57l21.95 -17.91c0,0 -41.1,-5.59 -58.56,0.6 0,0 19.95,-17.16 64.49,-4.64l23.84 -14.26c0,0 -34.91,-7.59 -55.96,-4.99 0,0 22.05,-11.87 62.95,1l17.1 -7.69c0,0 -25.68,-4.98 -33.21,-5.83 -7.53,-0.85 -7.93,-2.9 -7.93,-2.9 4.8,-0.77 9.69,-1.19 14.57,-1.19 11.54,0 22.98,2.25 33.65,6.59 10.68,4.34 36.41,-13.52 35.76,-15.76z"/>
  <path class="fil16" d="M839.9 3144.67c0,-13.64 -65.39,-24.69 -146.04,-24.69 -80.66,0 -146.04,11.05 -146.04,24.69 0,13.63 65.38,24.69 146.04,24.69 80.65,0 146.04,-11.06 146.04,-24.69z"/>
 </g>
</svg>
