<?xml version="1.0" encoding="UTF-8"?>
<!DOCTYPE svg PUBLIC "-//W3C//DTD SVG 1.1//EN" "http://www.w3.org/Graphics/SVG/1.1/DTD/svg11.dtd">
<!-- Creator: CorelDRAW 2021 (64-Bit) -->
<svg xmlns="http://www.w3.org/2000/svg" xml:space="preserve" width="34.1096mm" height="26.0086mm" version="1.1" style="shape-rendering:geometricPrecision; text-rendering:geometricPrecision; image-rendering:optimizeQuality; fill-rule:evenodd; clip-rule:evenodd"
viewBox="0 0 3410.96 2600.86"
 xmlns:xlink="http://www.w3.org/1999/xlink"
 xmlns:xodm="http://www.corel.com/coreldraw/odm/2003">
 <defs>
  <style type="text/css">
   <![CDATA[
    .fil6 {fill:#023859;fill-rule:nonzero}
    .fil1 {fill:#333333;fill-rule:nonzero}
    .fil5 {fill:#609BBF;fill-rule:nonzero}
    .fil3 {fill:#D0CDE1;fill-rule:nonzero}
    .fil0 {fill:#F2F2F2;fill-rule:nonzero}
    .fil2 {fill:#FFB8B8;fill-rule:nonzero}
    .fil4 {fill:#609BBF;fill-rule:nonzero;fill-opacity:0.501961}
   ]]>
  </style>
 </defs>
 <g id="Layer_x0020_1">
  <metadata id="CorelCorpID_0Corel-Layer"/>
  <g id="_2137722663792">
   <path class="fil0" d="M2725.13 2352.74l-1839.84 0c-487.62,-107.99 -885.83,-479.92 -885.83,-1036.12 0,-0.27 0,-0.7 0,-0.98 0,-83.71 9.19,-167.42 27.15,-249.15l1482.99 -238.88 1144.03 -184.26c81.87,53.52 160.55,113.47 233.99,178.41l-1095.05 417.62 -516.59 197.07 580.14 -144.19 1204.11 -299.28c72.9,81.42 139.85,169.69 198.78,261.71l-364.14 272.25 411.41 -194.73c1.76,2.94 3.5,5.91 5.23,8.93 258.12,450.43 -67.23,1011.6 -586.38,1011.6z"/>
   <path class="fil0" d="M2431.12 516.86c-278.49,57.52 -620.89,130.22 -972.93,205.79 -509,109.29 -1038.14,224.66 -1423.38,308.99l0.26 -1c16.5,-63.07 50.67,-120.27 98.37,-164.74 291.96,-274.87 659.31,-458.17 1054.56,-525.92l-0.04 -0.08c114.05,-19.24 230.21,-29.3 346.12,-29.3 0.25,0 0.5,0 0.75,0 0.67,0 2.16,0 2.91,0 309.51,0 615.29,70.66 893.45,206.26l-0.07 0z"/>
   <path class="fil1" d="M346.9 7.67l0 2592.39 2539.6 0 0 -2592.39 -2539.6 0zm2304.99 1829.92l-2064.52 0 0 -1607.04 2064.52 0 0 1607.04z"/>
   <path class="fil1" d="M1750.85 683.49c-62.61,-105.79 -186.47,-110.71 -186.47,-110.71 0,0 -120.7,-15.44 -198.13,145.68 -72.17,150.17 -171.77,295.17 -16.03,330.32l28.13 -87.55 17.42 94.07c14.47,1.05 29.13,1.57 43.71,1.57 7.59,0 15.4,-0.22 22.91,-0.45 166.78,-5.38 325.62,1.58 320.5,-58.27 -6.79,-79.54 28.2,-212.87 -32.04,-314.66z"/>
   <path class="fil2" d="M1323.44 1688.03l-211.14 146.63c0,0 -123.17,129.03 -35.2,129.03 87.98,0 123.17,-111.44 123.17,-111.44l269.8 -117.3 -146.63 -46.92z"/>
   <path class="fil3" d="M1408.48 1116.18c0,0 -184.75,571.85 -126.1,601.18 58.65,29.32 187.69,46.92 187.69,46.92l-61.59 -648.1z"/>
   <path class="fil4" d="M1408.48 1116.18c0,0 -184.75,571.85 -126.1,601.18 58.65,29.32 187.69,46.92 187.69,46.92l-61.59 -648.1z"/>
   <path class="fil1" d="M1989.31 1837.59l-415.9 0 295.49 -149.56c6.49,4.21 12.77,8.88 18.71,13.85 43.79,36.83 78.59,83.37 101.68,135.72l0.02 -0.01z"/>
   <circle class="fil2" cx="1525.79" cy="817.06" r="152.49"/>
   <path class="fil2" d="M1522.86 943.16c0,0 35.19,111.44 0,152.49 -35.2,41.06 193.54,-58.65 193.54,-58.65 0,0 -82.11,-117.3 -58.65,-170.09l-134.89 76.25z"/>
   <path class="fil5" d="M1860.69 1452.31l-12.32 80.29c0,0 6.22,18.24 13.78,44.81 9.86,34.67 22,83.52 25.46,124.46 3.57,41.53 -1.82,74.96 -27.51,77.07 -36.83,3.05 -56.01,25.39 -75.13,58.65l-424.29 0c1.12,-18.3 2.47,-37.3 4.05,-56.83 0.88,-11.73 1.86,-23.62 2.93,-35.66 1.18,-13.84 42.74,-273.84 11.5,-329.8 -64.5,-115.54 17.59,-181.82 17.59,-181.82 0,0 11.73,-87.97 11.73,-117.3 0,-22.99 90.09,-49.56 129.04,-60 2.52,-0.64 4.75,-1.29 6.8,-1.76 6.75,-1.76 10.79,-2.76 10.79,-2.76l30.8 -12.61c0,0 86.51,-16.71 92.37,-28.44 2.11,-4.22 8.04,-7.68 15.01,-10.68 12.38,-5.27 28.16,-9.03 31.91,-12.78 5.35,-6.15 10.21,-12.78 14.48,-19.71 10.67,-13.08 25.92,-20.94 43.17,-25.23 62.99,-15.89 153.49,15.61 153.49,15.61l-31.68 206.74 -43.97 287.75z"/>
   <path class="fil2" d="M2044.85 1324.39l-211.14 146.63c0,0 -123.17,129.03 -35.19,129.03 87.97,0 123.16,-111.43 123.16,-111.43l269.8 -117.31 -146.63 -46.92z"/>
   <path class="fil1" d="M1682.11 673.3l-122.37 -64.1 -76.78 11.91c-55.63,8.63 -100.39,50.41 -112.82,105.32l-14.36 63.41 87.04 -3.35 24.31 -56.73 0.01 55.8 40.16 -1.55 23.3 -90.32 14.57 96.15 142.77 -2.91 -5.83 -113.63z"/>
   <path class="fil5" d="M1895.29 969.55l41.06 -11.73c0,0 416.42,170.09 404.69,316.72 -11.73,146.63 5.86,146.63 -64.52,152.49 -70.38,5.87 -275.66,-64.51 -269.79,-76.24 5.86,-11.73 46.92,-70.39 46.92,-70.39l-158.36 -123.16 0 -187.69z"/>
   <circle class="fil2" cx="1678.28" cy="817.06" r="23.46"/>
   <path class="fil1" d="M2375.12 1852.72c-1.2,-1.94 -29.33,-48.92 -39.09,-146.47 -8.94,-89.5 -3.19,-240.36 75.05,-450.79 148.21,-398.65 -34.16,-720.3 -36.02,-723.51l8.99 -5.22c0.48,0.81 47.54,82.82 75.33,213.41 13.46,63.43 20.28,128.33 20.28,193.23 0,111.16 -20.01,221.65 -58.88,325.76 -147.96,397.97 -37.96,586.37 -36.83,588.23l-8.83 5.36z"/>
   <circle class="fil6" cx="2317.16" cy="440.95" r="67.59"/>
   <circle class="fil1" cx="2530.34" cy="690.53" r="67.59"/>
   <circle class="fil6" cx="2384.75" cy="856.91" r="67.59"/>
   <circle class="fil6" cx="2561.54" cy="997.3" r="67.59"/>
   <circle class="fil1" cx="2332.76" cy="1215.68" r="67.59"/>
   <path class="fil1" d="M2415.95 1855.21c0,0 -67.59,-166.38 135.19,-291.17l-135.19 291.17z"/>
   <path class="fil1" d="M2332.82 1852.19c0,0 -30.76,-176.93 -268.86,-175.41l268.86 175.41z"/>
  </g>
 </g>
</svg>
