<?xml version="1.0" encoding="UTF-8"?>
<!DOCTYPE svg PUBLIC "-//W3C//DTD SVG 1.1//EN" "http://www.w3.org/Graphics/SVG/1.1/DTD/svg11.dtd">
<!-- Creator: CorelDRAW 2021 (64-Bit) -->
<svg xmlns="http://www.w3.org/2000/svg" xml:space="preserve" width="38.9262mm" height="26.5726mm" version="1.1" style="shape-rendering:geometricPrecision; text-rendering:geometricPrecision; image-rendering:optimizeQuality; fill-rule:evenodd; clip-rule:evenodd"
viewBox="0 0 3892.62 2657.26"
 xmlns:xlink="http://www.w3.org/1999/xlink"
 xmlns:xodm="http://www.corel.com/coreldraw/odm/2003">
 <defs>
  <style type="text/css">
   <![CDATA[
    .str0 {stroke:#333333;stroke-width:26.46;stroke-miterlimit:22.9256}
    .fil2 {fill:#023859;fill-rule:nonzero}
    .fil1 {fill:#333333;fill-rule:nonzero}
    .fil5 {fill:#D0CDE1;fill-rule:nonzero}
    .fil0 {fill:#E6E6E6;fill-rule:nonzero}
    .fil3 {fill:#FFB6B6;fill-rule:nonzero}
    .fil4 {fill:#FFB8B8;fill-rule:nonzero}
    .fil6 {fill:black;fill-rule:nonzero;fill-opacity:0.200000}
   ]]>
  </style>
 </defs>
 <g id="Layer_x0020_1">
  <metadata id="CorelCorpID_0Corel-Layer"/>
  <g id="_2138702328176">
   <ellipse class="fil0" transform="matrix(0.147628 -0.000236944 0.000236944 0.147628 705.78 2448.08)" rx="4758.91" ry="309.28"/>
   <ellipse class="fil0" transform="matrix(0.147628 -0.000236944 0.000236944 0.147628 2191.88 1859.59)" rx="3736.66" ry="242.85"/>
   <ellipse class="fil0" transform="matrix(0.147628 -0.000236944 0.000236944 0.147628 3190.36 2392.87)" rx="4721.41" ry="834.33"/>
   <path class="fil1" d="M810.03 1204.84l79.1 -22.03c0,0 30.99,-6.18 12.06,-66.7 -18.94,-60.52 -56.49,-43.58 -56.49,-43.58l-70.17 20.39 -27.71 8.55 38.98 54.69 3.27 36.46 20.96 12.22z"/>
   <polygon class="fil1" points="657.17,1044.94 632.35,1144.08 759.52,1267.33 770.45,1270.07 799.62,1261.88 824.44,1162.74 799.3,1136.3 824.99,1129.57 770.15,1076.33 741.54,1082.34 718.58,1059.55 734.07,1053.35 735.54,1047.52 716.77,1032.75 "/>
   <polygon class="fil2" points="776.31,1184.78 759.89,1250.38 684.09,1178.73 703.07,1112.21 "/>
   <polygon class="fil1 str0" points="657.17,1044.94 653.68,1058.84 780.14,1181.86 791.07,1184.6 819.33,1176.95 820.89,1176.92 824.44,1162.74 799.3,1136.3 824.99,1129.57 770.15,1076.33 741.54,1082.34 718.58,1059.55 734.07,1053.35 735.54,1047.52 716.77,1032.75 "/>
   <ellipse class="fil2" transform="matrix(0.0358558 -0.143208 0.143208 0.0358558 715.581 1043.69)" rx="48.36" ry="71.26"/>
   <ellipse class="fil2" transform="matrix(0.0358558 -0.143208 0.143208 0.0358558 795.92 1149.79)" rx="48.36" ry="71.26"/>
   <path class="fil3" d="M862.59 1328.34l-17.26 -58.66c0,0 44.86,-106.96 -6.9,-117.31 -51.75,-10.35 -55.2,100.06 -55.2,100.06l20.7 65.55 58.66 10.36z"/>
   <circle class="fil3" cx="542.29" cy="1077.23" r="137.05"/>
   <path class="fil3" d="M586.63 1173.98c0,0 8.06,100.77 28.22,108.84 20.15,8.06 -180.2,64.49 -180.2,64.49l60.46 -68.52c0,0 -25.38,-104.81 -53.6,-129l145.12 24.19z"/>
   <path class="fil2" d="M779.78 1297.28l55.2 -6.9c0,0 65.56,34.51 65.56,79.36 0,44.85 37.95,117.31 37.95,117.31 0,0 27.6,96.61 -34.5,103.51 -62.1,6.9 -117.31,-103.51 -117.31,-103.51l-6.9 -189.77z"/>
   <path class="fil1" d="M810.83 1845.88l111.29 -76.67c18.13,-12.72 39.78,-19.56 61.94,-19.56 20.83,0 41.24,6.04 58.71,17.38 15.34,10.22 26.84,23.64 26.84,40.89 0,51.75 -113.86,172.51 -113.86,172.51 0,0 -86.26,189.78 -169.07,196.68 -54.28,4.79 -108.71,13.17 -162.09,24.16 -53.39,10.99 37.95,138.01 17.25,175.96 -20.7,37.96 -100.06,82.81 -106.96,79.36 -6.9,-3.45 -103.51,-93.16 -144.91,-220.82 -41.4,-127.66 -69.01,-224.27 -31.05,-231.17 37.95,-6.9 451.91,-158.72 451.91,-158.72z"/>
   <path class="fil1" d="M1059.25 1797.58c0,0 24.15,-3.45 20.7,55.2 -3.45,58.65 -13.8,269.12 -31.05,310.52 -17.25,41.41 -20.7,89.71 -13.8,106.96 6.9,17.26 20.7,44.86 -3.45,48.31 -24.15,3.45 -124.21,-10.35 -134.56,-13.8 -10.35,-3.45 41.4,-138.01 34.5,-144.92 -6.9,-6.9 -13.8,-169.06 -13.8,-169.06l141.46 -193.21z"/>
   <path class="fil1" d="M1024.75 2308.22c0,0 58.65,-17.25 65.55,20.7 0,0 10.35,58.65 -34.5,79.36 -28.9,13.64 -56.71,29.88 -82.83,48.29 -26.12,18.4 -72.46,27.6 -75.91,-6.9 -3.45,-34.51 13.8,-158.72 13.8,-158.72l113.89 17.27z"/>
   <path class="fil1" d="M634.87 2349.62l-110.41 -89.71c0,0 20.7,110.41 -6.9,131.11l-12.61 36.87 35.3 28.88c0,0 108.42,-17.44 94.62,-107.15z"/>
   <path class="fil1" d="M479.6 2197.81c0,0 72.46,20.7 62.11,93.16 -10.35,72.45 -23.62,151.17 -23.62,151.17 0,0 -3.98,193.86 -55.74,207.66 -51.75,13.8 -65.55,-13.81 -65.55,-13.81 0,0 -58.83,-151.48 -41.41,-196.66 21.1,-54.69 51.49,-116.1 41.41,-134.56 -9.93,-18.17 6.9,-117.31 82.8,-106.96z"/>
   <path class="fil2" d="M438.2 1245.53c0,0 27.6,3.45 72.45,10.35 44.86,6.9 75.91,-27.6 100.06,-20.7 24.15,6.9 224.27,55.2 224.27,55.2l-17.31 132.71c-5.67,43.49 -19.76,85.14 -37.81,125.12 -29.1,64.46 14.02,266.4 55.12,304.57 35.76,33.2 82.81,41.4 31.06,100.06 -51.76,58.65 -141.47,110.41 -324.33,93.16 -182.87,-17.26 -207.02,-13.81 -207.02,-41.41 0,-27.6 65.08,-389.88 44.38,-410.58 -20.71,-20.71 -31.06,-41.41 -31.06,-51.76 0,-6.92 -21.58,-84.75 -35.89,-135.61 -3.79,-13.09 -5.72,-26.68 -5.72,-40.32 0,-23.39 5.7,-46.49 16.53,-67.21 6.47,-12.12 13.88,-21.43 21.64,-22.53 24.16,-3.45 7.38,-20.71 24.63,-20.71 17.26,0 27.61,3.45 37.96,0l31.04 -10.34z"/>
   <path class="fil1" d="M702.65 984.79c0,0 -3.12,-169.37 -169.36,-89.19 0,0 -127.83,-4.51 -145.72,157.18l-17.29 169.29 18.52 -13.93 12.42 19.14 33.85 3.46 9.89 -29.78 11.71 32.67 271.26 -12.72c0,0 -130.16,-53.18 -150.75,-179.8l26.36 20.74 99.11 -77.06z"/>
   <circle class="fil1" cx="390.21" cy="918.33" r="67.95"/>
   <path class="fil1" d="M457.05 891.67c-6.69,-31.31 -34.37,-53.68 -66.38,-53.68 -3.36,0 -6.74,0.26 -10.06,0.75 1.36,-0.38 2.71,-0.8 4.11,-1.1 4.66,-0.99 9.42,-1.5 14.19,-1.5 37.52,0 67.95,30.43 67.95,67.95 0,32.05 -22.41,59.75 -53.75,66.44 -1.41,0.3 -2.8,0.47 -4.2,0.68 29.33,-8.18 49.64,-34.93 49.64,-65.39 0,-4.75 -0.51,-9.51 -1.5,-14.15l0 0z"/>
   <circle class="fil1" cx="2119.55" cy="303.55" r="112"/>
   <path class="fil4" d="M2178.51 378.12c0,0 -1.68,69.13 5.06,70.82 6.75,1.68 -92.74,28.66 -92.74,28.66l-10.11 -94.42 97.79 -5.06z"/>
   <path class="fil4" d="M1392.75 968.28c0,0 -74.19,0 -75.88,-8.43 -1.68,-8.43 -16.86,69.13 -16.86,69.13l30.35 10.12c0,0 57.33,-25.29 62.39,-25.29 5.06,0 0,-45.53 0,-45.53z"/>
   <path class="fil1" d="M1311.82 998.63c0,0 13.48,-45.52 30.35,-47.21 0,0 -57.33,-37.1 -59.02,-48.9 -1.69,-11.8 -21.92,-42.15 -30.35,-32.04 -8.43,10.12 -8.43,170.31 6.74,187.17 15.18,16.86 82.63,-23.7 82.63,-23.7 0,0 -42.16,-18.46 -30.35,-35.32z"/>
   <polygon class="fil4" points="2227.41,1644.44 2240.9,1716.95 2178.51,1727.06 2178.51,1644.44 "/>
   <path class="fil1" d="M2227.41 1708.52c0,0 10.12,-32.04 16.87,-26.98 6.74,5.06 16.86,37.09 15.17,45.53 -1.68,8.43 -13.49,74.19 -8.43,85.99 5.06,11.8 -25.29,72.51 -64.07,67.45 -38.79,-5.06 -35.41,-38.78 -35.41,-38.78l13.48 -52.28 5.06 -82.62c0,0 43.84,-6.74 57.33,1.69z"/>
   <circle class="fil1" cx="2158.72" cy="185.68" r="46.34"/>
   <path class="fil1" d="M2220.52 160.57c0,-23.71 -17.93,-43.62 -41.52,-46.09 1.6,-0.16 3.21,-0.25 4.82,-0.25 25.58,0.02 46.31,20.77 46.31,46.34 0,25.58 -20.73,46.33 -46.3,46.35 -1.61,0 -3.23,-0.09 -4.83,-0.25 23.59,-2.48 41.52,-22.38 41.52,-46.1l0 0z"/>
   <circle class="fil4" cx="2119.5" cy="354.51" r="70.82"/>
   <path class="fil1" d="M2259.45 846.88c0,0 -3.37,84.31 -16.86,128.15 -13.49,43.84 -62.12,356.06 -52.01,379.67 10.12,23.6 62.13,284.68 50.32,299.86 -11.8,15.18 -67.44,10.12 -67.44,10.12l-75.62 -316.73c0,0 14.91,-349.32 -109.86,-357.75 -124.78,-8.43 -328.81,-13.49 -328.81,-13.49 0,0 -131.52,38.78 -190.54,37.1 -59.02,-1.69 -92.74,15.18 -92.74,15.18l-10.12 -69.14 261.36 -57.33c0,0 239.44,-82.62 370.96,-60.7 131.53,21.92 261.36,5.06 261.36,5.06z"/>
   <path class="fil5" d="M2165.02 427.02c0,0 20.24,-11.81 25.3,0 5.06,11.8 40.47,21.92 53.96,11.8 13.49,-10.12 47.21,3.37 47.21,3.37l37.09 109.6c0,0 -18.54,94.43 -35.41,146.7 -16.86,52.27 -23.6,160.19 -16.86,170.31 6.75,10.12 -134.89,50.58 -204.03,25.29 -69.13,-25.29 -84.3,-53.96 -84.3,-53.96 0,0 75.87,-107.91 50.58,-158.5 -25.29,-50.58 -5.06,-107.92 -5.06,-107.92l-10.11 -57.32 57.33 -32.04c0,0 3.37,-30.35 16.86,-30.35 13.49,0 67.44,-26.98 67.44,-26.98z"/>
   <path class="fil5" d="M2048.68 518.07l-25.29 0c-11.44,10.7 -17.94,25.67 -17.94,41.33 0,3.67 0.36,7.34 1.07,10.94 6.74,32.04 37.16,138.25 37.16,138.25l25.23 -65.74 -20.23 -124.78z"/>
   <path class="fil4" d="M1976.05 788.86c0,0 -50.46,54.64 -13.37,83.31 37.1,28.66 46.24,-65.76 46.24,-65.76l-32.87 -17.55z"/>
   <path class="fil5" d="M2048.68 674.89l-11.8 47.21 -20.24 37.09c0,0 -69.13,45.53 -69.13,62.39 0,0 30.35,-38.78 69.13,0l34.57 -83.46 -2.53 -63.23z"/>
   <ellipse class="fil1" cx="2106.52" cy="279.81" rx="77.24" ry="46.34"/>
   <path class="fil4" d="M2259.45 283.69c0,0 -53.96,-30.35 -75.88,-8.43 -21.92,21.92 65.76,55.64 65.76,55.64l10.12 -47.21z"/>
   <path class="fil5" d="M2279.69 450.62l11.8 -8.43c0,0 13.49,-20.23 25.29,-13.49 11.81,6.75 80.94,-25.29 80.94,-25.29 0,0 -25.29,11.8 -25.29,-8.43 0,-20.24 -3.38,-16.86 -20.24,-16.86 -16.86,0 -16.86,8.43 -23.61,-3.38 -6.74,-11.8 -3.37,-18.54 -15.17,-11.8 -11.81,6.75 -25.29,1.69 -28.67,-3.37 -3.37,-5.06 -64.07,-13.49 -64.07,-13.49 0,0 23.61,-69.13 28.66,-74.19 5.06,-5.06 134.9,52.27 134.9,52.27 0,0 163.56,45.53 121.4,97.8 -42.15,52.27 -193.91,131.52 -193.91,131.52l-32.03 -102.86z"/>
   <path class="fil2" d="M2595.29 4.88l304.2 1.89c0,0 500.7,266.41 149.26,818.13 0,0 -143.59,-34.01 -302.31,83.13 0,0 -92.58,-882.37 -151.15,-903.15z"/>
   <path class="fil6" d="M2685.78 7.64c54.5,227.65 116.1,814.81 116.1,814.81 141.8,-104.66 271.45,-88.68 297.49,-84.08 -15.31,30.3 -32.41,60.2 -50.62,88.74 -18.2,28.54 -143.59,-34.01 -302.31,83.14 0,0 -92.58,-882.38 -151.15,-903.16l90.49 0.55z"/>
   <polygon class="fil1" points="3050.65,290.18 3077.1,418.67 3409.53,358.24 3409.64,358.2 3417.2,207.05 3352.96,207.05 "/>
   <polygon class="fil6" points="3358.32,207.05 3409.53,358.24 3409.64,358.2 3417.2,207.05 "/>
   <ellipse class="fil1" cx="3061.98" cy="346.87" rx="37.79" ry="86.91"/>
   <path class="fil1" d="M3258.48 2183.62c0,0 0,0 0,0 -6.38,0 -11.55,-5.17 -11.55,-11.55l0 -1825.2c0,-6.38 5.18,-11.55 11.55,-11.55 6.38,0 11.55,5.17 11.55,11.55l0 1825.2c0,0 0,0 0,0 0,6.38 -5.17,11.55 -11.55,11.55l0 0z"/>
   <path class="fil1" d="M3099.78 2504.83c0,0 -0.01,0 -0.02,0 -6.37,0 -11.54,-5.17 -11.54,-11.55 0,-0.74 0.07,-1.48 0.21,-2.21l147.45 -755.89 -387.19 590.61c-2.14,3.26 -5.78,5.22 -9.67,5.22 -6.38,0 -11.56,-5.17 -11.56,-11.55 0,-2.25 0.67,-4.46 1.91,-6.35l0 0.01 419.45 -639.81c2.14,-3.26 5.77,-5.22 9.66,-5.22 6.38,0 11.55,5.17 11.55,11.55 0,0.74 -0.07,1.48 -0.21,2.21l-158.71 813.64c-1.06,5.42 -5.8,9.33 -11.33,9.34l0 0z"/>
   <path class="fil1" d="M3696.84 2361.23c0,0 -0.01,0 -0.01,0 -3.89,0 -7.52,-1.96 -9.66,-5.22l-438.35 -668.86c-1.23,-1.89 -1.9,-4.1 -1.9,-6.35 0,-6.38 5.17,-11.55 11.55,-11.55 3.9,0 7.54,1.97 9.67,5.23l0 0.01 438.35 668.86c1.24,1.88 1.89,4.08 1.89,6.33 0,6.37 -5.16,11.54 -11.54,11.55l0 0z"/>
  </g>
 </g>
</svg>
