<?xml version="1.0" encoding="UTF-8"?>
<!DOCTYPE svg PUBLIC "-//W3C//DTD SVG 1.1//EN" "http://www.w3.org/Graphics/SVG/1.1/DTD/svg11.dtd">
<!-- Creator: CorelDRAW 2021 (64-Bit) -->
<svg xmlns="http://www.w3.org/2000/svg" xml:space="preserve" width="20.2174mm" height="5.963mm" version="1.1" style="shape-rendering:geometricPrecision; text-rendering:geometricPrecision; image-rendering:optimizeQuality; fill-rule:evenodd; clip-rule:evenodd"
viewBox="0 0 2021.74 596.3"
 xmlns:xlink="http://www.w3.org/1999/xlink"
 xmlns:xodm="http://www.corel.com/coreldraw/odm/2003">
 <defs>
  <style type="text/css">
   <![CDATA[
    .fil0 {fill:#F2F2F2;fill-rule:nonzero}
   ]]>
  </style>
 </defs>
 <g id="Layer_x0020_1">
  <metadata id="CorelCorpID_0Corel-Layer"/>
  <g id="_2138220141296">
   <path class="fil0" d="M1006.86 10.88c-0.15,0 -0.29,0 -0.44,0 -183.91,0 -357.37,86.26 -468.2,232.99 -48.19,-20.68 -100.22,-31.44 -152.73,-31.44 -213.36,0 -386.35,172.94 -386.39,386.31l1595.61 0c0.01,0 0.01,0 0.01,0 0,-324.62 -263.25,-587.87 -587.86,-587.87 0,0 0,0 0,0l0 0.01z"/>
   <path class="fil0" d="M1004.63 10.88c0.15,0 0.29,0 0.44,0 183.91,0 357.37,86.26 468.2,232.99 48.19,-20.68 100.22,-31.44 152.73,-31.44 213.36,0 386.35,172.94 386.39,386.31l-1595.61 0c-0.01,0 -0.01,0 -0.01,0 0,-324.62 263.25,-587.87 587.86,-587.87 0,0 0,0 0,0l0 0.01z"/>
  </g>
 </g>
</svg>
