<?xml version="1.0" encoding="UTF-8"?>
<!DOCTYPE svg PUBLIC "-//W3C//DTD SVG 1.1//EN" "http://www.w3.org/Graphics/SVG/1.1/DTD/svg11.dtd">
<!-- Creator: CorelDRAW 2021 (64-Bit) -->
<svg xmlns="http://www.w3.org/2000/svg" xml:space="preserve" width="7.6716mm" height="10.4308mm" version="1.1" style="shape-rendering:geometricPrecision; text-rendering:geometricPrecision; image-rendering:optimizeQuality; fill-rule:evenodd; clip-rule:evenodd"
viewBox="0 0 767.16 1043.08"
 xmlns:xlink="http://www.w3.org/1999/xlink"
 xmlns:xodm="http://www.corel.com/coreldraw/odm/2003">
 <defs>
  <style type="text/css">
   <![CDATA[
    .fil0 {fill:#023859;fill-rule:nonzero}
    .fil1 {fill:#212121;fill-rule:nonzero}
   ]]>
  </style>
 </defs>
 <g id="Layer_x0020_1">
  <metadata id="CorelCorpID_0Corel-Layer"/>
  <g id="_2138361289616">
   <path class="fil0" d="M757.05 656.78c0,285.7 -169.84,385.46 -379.36,385.46 -4.86,0 -9.7,-0.05 -14.54,-0.16 -9.71,-0.21 -19.32,-0.67 -28.82,-1.32 -189.09,-13.38 -336,-118.27 -336,-383.98 0,-274.98 351.39,-621.96 377.79,-647.64l0.04 -0.05c1.02,-0.99 1.53,-1.48 1.53,-1.48 0,0 379.36,363.46 379.36,649.17z"/>
   <path class="fil1" d="M363.87 998.53l138.75 -193.87 -139.1 215.16 -0.37 22.26c-9.71,-0.21 -19.32,-0.67 -28.82,-1.32l14.95 -285.84 -0.12 -2.22 0.26 -0.42 1.41 -26.99 -139.44 -215.7 139.88 195.45 0.32 5.73 11.31 -215.97 -119.38 -222.89 120.83 184.98 11.77 -447.75 0.04 -1.53 0 1.48 -1.96 353.08 118.85 -139.97 -119.34 170.39 -3.14 193.36 110.97 -185.57 -111.43 214.03 -1.76 107.5 161.1 -258.29 -161.7 295.8 -3.88 239.11z"/>
  </g>
 </g>
</svg>
