<?xml version="1.0" encoding="UTF-8"?>
<!DOCTYPE svg PUBLIC "-//W3C//DTD SVG 1.1//EN" "http://www.w3.org/Graphics/SVG/1.1/DTD/svg11.dtd">
<!-- Creator: CorelDRAW 2021 (64-Bit) -->
<svg xmlns="http://www.w3.org/2000/svg" xml:space="preserve" width="17.454mm" height="29.7348mm" version="1.1" style="shape-rendering:geometricPrecision; text-rendering:geometricPrecision; image-rendering:optimizeQuality; fill-rule:evenodd; clip-rule:evenodd"
viewBox="0 0 1745.4 2973.48"
 xmlns:xlink="http://www.w3.org/1999/xlink"
 xmlns:xodm="http://www.corel.com/coreldraw/odm/2003">
 <defs>
  <style type="text/css">
   <![CDATA[
    .fil1 {fill:#333333;fill-rule:nonzero}
    .fil0 {fill:#F2F2F2;fill-rule:nonzero}
   ]]>
  </style>
 </defs>
 <g id="Layer_x0020_1">
  <metadata id="CorelCorpID_0Corel-Layer"/>
  <g id="_2138360348432">
   <path class="fil0" d="M1737.85 1490.84c0,654.04 -388.82,882.41 -868.45,882.41 -479.63,0 -868.45,-228.37 -868.45,-882.41 0,-654.05 868.45,-1486.09 868.45,-1486.09 0,0 868.45,832.04 868.45,1486.09z"/>
   <polygon class="fil1" points="837.77,2273.2 846.66,1725.82 1216.81,1048.64 848.05,1639.95 852.05,1393.84 1107.16,903.9 853.11,1328.7 853.11,1328.7 860.3,886.04 1133.47,495.99 861.43,816.43 865.93,4.75 837.69,1079.27 840.01,1034.94 562.26,609.81 835.55,1120.04 809.68,1614.41 808.9,1601.29 488.72,1153.91 807.94,1647.65 804.7,1709.47 804.12,1710.41 804.38,1715.48 738.73,2969.75 826.45,2969.75 836.97,2321.9 1155.41,1829.37 "/>
  </g>
 </g>
</svg>
