<?xml version="1.0" standalone="no"?>
<!DOCTYPE svg PUBLIC "-//W3C//DTD SVG 20010904//EN"
 "http://www.w3.org/TR/2001/REC-SVG-20010904/DTD/svg10.dtd">
<svg version="1.0" xmlns="http://www.w3.org/2000/svg"
 width="700.000000pt" height="700.000000pt" viewBox="0 0 700.000000 700.000000"
 preserveAspectRatio="xMidYMid meet">
<metadata>
Created by potrace 1.14, written by Peter Selinger 2001-2017
</metadata>
<g transform="translate(0.000000,700.000000) scale(0.100000,-0.100000)"
fill="#000000" stroke="none">
<path d="M3387 6924 c-1 -1 -51 -4 -112 -8 -139 -8 -202 -13 -240 -19 -16 -3
-50 -8 -75 -12 -810 -119 -1588 -557 -2115 -1190 -28 -33 -53 -62 -56 -65 -24
-20 -259 -361 -259 -376 0 -4 -7 -15 -15 -24 -27 -30 -190 -364 -237 -485 -72
-187 -129 -370 -159 -513 -5 -26 -12 -58 -14 -72 -5 -22 -11 -55 -30 -170 -4
-19 -8 -53 -10 -75 -3 -22 -7 -60 -10 -85 -15 -137 -22 -479 -10 -580 2 -19 6
-66 9 -105 4 -38 9 -86 11 -105 3 -19 7 -51 10 -70 9 -68 46 -253 66 -330 149
-584 437 -1103 849 -1534 122 -127 176 -177 324 -301 85 -71 288 -213 406
-283 467 -278 982 -438 1540 -478 184 -13 564 -1 650 21 8 2 44 7 80 10 36 4
67 8 70 10 3 2 26 6 50 10 64 9 339 79 445 113 260 85 567 232 795 381 803
523 1348 1341 1519 2276 11 61 23 137 27 170 3 33 8 69 10 80 16 86 22 440 10
605 -12 176 -52 435 -91 590 -30 119 -94 323 -124 395 -154 367 -274 585 -459
835 -192 259 -507 570 -730 722 -26 17 -49 34 -52 37 -3 4 -48 34 -100 67
-409 263 -855 438 -1300 510 -25 4 -52 9 -60 10 -8 2 -42 6 -75 9 -33 3 -67 8
-75 10 -37 10 -453 27 -463 19z"/>
</g>
</svg>
