<?xml version="1.0" standalone="no"?>
<!DOCTYPE svg PUBLIC "-//W3C//DTD SVG 20010904//EN"
 "http://www.w3.org/TR/2001/REC-SVG-20010904/DTD/svg10.dtd">
<svg version="1.0" xmlns="http://www.w3.org/2000/svg"
 width="700.000000pt" height="700.000000pt" viewBox="0 0 700.000000 700.000000"
 preserveAspectRatio="xMidYMid meet">
<metadata>
Created by potrace 1.11, written by Peter Selinger 2001-2013
</metadata>
<g transform="translate(0.000000,700.000000) scale(0.100000,-0.100000)"
fill="#000000" stroke="none">
<path d="M3280 6953 c-19 -2 -89 -8 -155 -13 -109 -10 -150 -14 -210 -25 -11
-1 -38 -6 -60 -10 -403 -67 -832 -227 -1193 -444 -128 -76 -319 -208 -396
-273 -141 -119 -191 -164 -279 -253 -218 -218 -427 -490 -566 -735 -173 -304
-325 -700 -387 -1005 -34 -168 -34 -177 -34 -750 1 -454 4 -582 15 -630 8 -33
17 -73 20 -90 25 -153 114 -432 203 -640 138 -324 311 -605 545 -885 98 -117
327 -345 428 -426 41 -32 76 -61 79 -64 21 -21 114 -89 215 -156 200 -134 417
-251 605 -326 41 -17 89 -36 105 -43 72 -32 338 -114 415 -129 14 -2 32 -7 40
-10 8 -3 29 -7 45 -10 17 -3 68 -12 115 -21 70 -13 177 -15 640 -15 549 1 556
1 675 26 214 44 475 121 620 184 11 5 58 25 105 45 422 180 879 513 1191 866
35 40 72 81 82 91 26 27 189 248 231 312 20 31 52 80 71 110 96 149 249 472
319 675 32 90 100 335 115 411 26 127 38 199 46 269 4 30 9 63 11 75 9 50 18
244 18 401 0 156 -11 371 -19 385 -1 3 -6 34 -9 70 -22 217 -129 631 -212 819
-13 29 -24 57 -24 62 0 17 -142 304 -196 397 -101 172 -245 381 -330 478 -11
12 -39 46 -64 75 -62 75 -259 271 -355 355 -252 219 -587 431 -875 553 -41 18
-84 36 -95 41 -87 41 -402 142 -513 165 -9 2 -37 8 -62 14 -25 5 -61 12 -80
16 -19 3 -46 7 -60 10 -24 4 -67 12 -120 20 -141 22 -521 38 -660 28z"/>
</g>
</svg>
