<?xml version="1.0" encoding="UTF-8"?>
<!DOCTYPE svg PUBLIC "-//W3C//DTD SVG 1.1//EN" "http://www.w3.org/Graphics/SVG/1.1/DTD/svg11.dtd">
<!-- Creator: CorelDRAW 2021 (64-Bit) -->
<svg xmlns="http://www.w3.org/2000/svg" xml:space="preserve" width="75mm" height="17mm" version="1.1" style="shape-rendering:geometricPrecision; text-rendering:geometricPrecision; image-rendering:optimizeQuality; fill-rule:evenodd; clip-rule:evenodd"
viewBox="0 0 7500 1700"
 xmlns:xlink="http://www.w3.org/1999/xlink"
 xmlns:xodm="http://www.corel.com/coreldraw/odm/2003">
 <defs>
  <style type="text/css">
   <![CDATA[
    .fil2 {fill:#012840}
    .fil1 {fill:#023859}
    .fil3 {fill:#0790E6}
    .fil0 {fill:white}
    .fil5 {fill:white;fill-rule:nonzero}
    .fil4 {fill:white;fill-opacity:0.501961}
   ]]>
  </style>
 </defs>
 <g id="Layer_x0020_1">
  <metadata id="CorelCorpID_0Corel-Layer"/>
  <g id="_1949289286416">
   <circle class="fil0" cx="1014.07" cy="855.12" r="629.72"/>
   <circle class="fil1" cx="1014.07" cy="855.12" r="417.24"/>
   <circle class="fil2" cx="1014.07" cy="855.12" r="314.22"/>
   <circle class="fil1" cx="1014.07" cy="855.12" r="217.63"/>
   <circle class="fil3" cx="1014.07" cy="855.12" r="100.87"/>
   <path class="fil4" d="M908.33 538.66c55.71,0 100.87,45.16 100.87,100.87 0,55.71 -45.16,100.87 -100.87,100.87 -55.71,0 -100.87,-45.16 -100.87,-100.87 0,-55.71 45.16,-100.87 100.87,-100.87z"/>
  </g>
  <path class="fil5" d="M1743.1 648.54l0 442.07c0,107.8 12.86,159.23 73.19,225.49 60.32,65.27 157.24,78.13 210.65,78.13 90.98,0 157.24,-30.66 204.71,-79.12 46.49,-47.47 73.19,-101.87 73.19,-224.5l0 -442.07 -186.92 0 0 442.07c0,58.35 0,139.45 -92.96,139.45 -91.97,0 -94.94,-90 -94.94,-139.45l0 -442.07 -186.92 0zm780.3 731.84l186.91 0 0 -567.67 143.41 0 0 -164.17 -474.71 0 0 164.17 144.39 0 0 567.67zm708.1 -513.28c-21.75,53.41 -28.68,107.8 -28.68,156.26 0,187.91 154.28,370.87 384.71,370.87 227.47,0 387.68,-176.04 387.68,-379.77 0,-203.73 -161.2,-379.76 -386.69,-379.76 -204.71,0 -318.45,137.46 -357.02,232.4zm158.24 145.38c0,-102.85 70.22,-213.61 199.77,-213.61 134.5,0 198.78,121.64 198.78,216.58 0,93.95 -64.28,214.61 -196.8,214.61 -125.6,0 -201.75,-104.83 -201.75,-217.58zm686.34 367.9l179.01 0 0 -278.89 212.63 0 0 -164.17 -212.63 0 0 -124.61 220.54 0 0 -164.17 -399.55 0 0 731.84zm810.97 0l403.5 0 0 -164.17 -216.59 0 0 -567.67 -186.91 0 0 731.84zm476.68 0l406.47 0 0 -164.17 -227.47 0 0 -125.6 220.54 0 0 -164.17 -220.54 0 0 -113.73 227.47 0 0 -164.17 -406.47 0 0 731.84zm522.18 0l179 0 -4.94 -444.05 1.98 -0.99 278.89 445.04 162.19 0 0 -731.84 -179.01 0 7.92 457.9 -1.98 1.97 -282.85 -459.87 -161.2 0 0 731.84zm1222.37 -518.22c-1.98,-41.54 -4.95,-90.99 -48.46,-144.39 -47.47,-56.37 -125.6,-83.07 -197.79,-83.07 -122.64,0 -256.15,78.13 -256.15,215.59 0,137.47 127.58,188.9 179.01,209.66 112.74,47.47 143.4,59.34 143.4,107.8 0,33.63 -26.71,70.22 -71.21,70.22 -23.73,0 -76.15,-14.84 -76.15,-99.89l-185.93 0 0 23.74c0,93.95 52.42,232.41 264.06,232.41 193.84,0 255.15,-117.69 255.15,-224.5 0,-85.05 -34.61,-148.35 -171.09,-209.66 -131.53,-59.34 -151.31,-68.24 -151.31,-111.76 0,-34.61 31.65,-57.36 64.28,-57.36 57.36,0 63.3,46.49 67.25,71.21l184.94 0z"/>
 </g>
</svg>