<?xml version="1.0" encoding="UTF-8"?>
<!DOCTYPE svg PUBLIC "-//W3C//DTD SVG 1.1//EN" "http://www.w3.org/Graphics/SVG/1.1/DTD/svg11.dtd">
<!-- Creator: CorelDRAW 2021 (64-Bit) -->
<svg xmlns="http://www.w3.org/2000/svg" xml:space="preserve" width="47.7248mm" height="34.9978mm" version="1.1" style="shape-rendering:geometricPrecision; text-rendering:geometricPrecision; image-rendering:optimizeQuality; fill-rule:evenodd; clip-rule:evenodd"
viewBox="0 0 4772.48 3499.78"
 xmlns:xlink="http://www.w3.org/1999/xlink"
 xmlns:xodm="http://www.corel.com/coreldraw/odm/2003">
 <defs>
  <style type="text/css">
   <![CDATA[
    .fil2 {fill:#023859;fill-rule:nonzero}
    .fil3 {fill:#333333;fill-rule:nonzero}
    .fil1 {fill:#3F3D56;fill-rule:nonzero}
    .fil4 {fill:#CCCCCC;fill-rule:nonzero}
    .fil0 {fill:#E6E6E6;fill-rule:nonzero}
   ]]>
  </style>
 </defs>
 <g id="Layer_x0020_1">
  <metadata id="CorelCorpID_0Corel-Layer"/>
  <g id="_2138709998352">
   <path class="fil0" d="M2064.73 1430.7c-0.05,0 -0.1,0 -0.16,0 -68.63,0 -133.36,32.19 -174.72,86.95 -17.98,-7.72 -37.4,-11.73 -56.99,-11.73 -79.62,0 -144.18,64.53 -144.19,144.15l595.44 0.01c0,-0.01 0,-0.01 0,-0.01 0,-121.13 -98.24,-219.37 -219.38,-219.37 0,0 0,0 0,0l0 0z"/>
   <path class="fil1" d="M2887.29 1278.89l-2606.04 0c-72.55,0.09 -131.36,58.9 -131.46,131.45l0 1956.47c0.1,72.55 58.91,131.37 131.46,131.46l2606.04 0c72.55,-0.09 131.36,-58.91 131.46,-131.45l0 -1956.47c-0.1,-72.56 -58.91,-131.37 -131.46,-131.46l0 0zm115.99 2087.92c-0.07,64.02 -51.98,115.92 -115.99,115.99l-2606.04 0.01c-64.01,-0.08 -115.92,-51.98 -115.99,-116l-0.01 -1956.46c0.08,-64.02 51.99,-115.93 116,-116l2606.04 0.01c64.01,0.06 115.92,51.97 115.99,115.99l0 1956.46z"/>
   <circle class="fil2" cx="586.71" cy="2102.46" r="583.85"/>
   <path class="fil3" d="M3018.75 2934.3l0 161.86 -2868.96 0 0 -162.63 15.46 -22.27 909.57 -1309.75c8.37,-12.05 22.13,-19.26 36.8,-19.26 14.68,0 28.44,7.21 36.81,19.26l609.99 878.24 434.21 -619.72c8.38,-11.99 22.1,-19.15 36.73,-19.15 14.63,0 28.35,7.16 36.73,19.14l737.19 1052.17 15.47 22.11z"/>
   <path class="fil1" d="M780.03 3281.75l-456.25 0c-4.26,-0.02 -7.71,-3.48 -7.71,-7.74 0,-4.26 3.45,-7.72 7.71,-7.73l456.25 0c4.27,0 7.74,3.46 7.74,7.73 0,4.27 -3.47,7.73 -7.74,7.73l0 0.01z"/>
   <path class="fil1" d="M1468.27 3281.75l-456.25 0c0,-0.01 -0.01,-0.01 -0.02,-0.01 -4.27,0 -7.73,-3.46 -7.73,-7.73 0,-4.27 3.46,-7.73 7.73,-7.73 0.01,0 0.02,0 0.03,0l456.24 0c4.27,0 7.74,3.46 7.74,7.73 0,4.27 -3.47,7.73 -7.74,7.73l0 0.01z"/>
   <path class="fil1" d="M2156.51 3281.75l-456.25 0c-4.25,-0.02 -7.7,-3.48 -7.7,-7.74 0,-4.26 3.45,-7.72 7.7,-7.73l456.25 0c4.27,0 7.74,3.46 7.74,7.73 0,4.27 -3.47,7.73 -7.74,7.73l0 0.01z"/>
   <path class="fil1" d="M2844.75 3281.75l-456.25 0c-4.25,-0.02 -7.7,-3.48 -7.7,-7.74 0,-4.26 3.45,-7.72 7.7,-7.73l456.25 0c4.27,0 7.74,3.46 7.74,7.73 0,4.27 -3.47,7.73 -7.74,7.73l0 0.01z"/>
   <ellipse class="fil0" transform="matrix(0.202671 -0.183421 0.183421 0.202671 3622.43 1101.87)" rx="4922.49" ry="3055.34"/>
   <path class="fil4" d="M2579.74 3086.17c-74.3,-153.49 -100.61,-326.44 -87.68,-495.77 13.91,-168.16 63.8,-331.79 145.7,-479.28 78.25,-143.09 181.69,-271.18 299.27,-383.81 124.79,-119.54 265.5,-221.01 413.55,-309.7 156.33,-93.66 320.61,-173.25 486.79,-247.71 20.67,-9.25 41.39,-18.44 62.16,-27.57 13.64,-6.01 1.85,-26 -11.71,-20.03 -169.43,74.6 -337.44,153.22 -498.1,245.47 -153.49,88.13 -300.33,188.95 -431.53,308.09 -122.38,111.14 -231.45,238.27 -316.02,380.62 -87.82,145.87 -145.09,308.56 -167.57,477.32 -21.67,170.09 -4.91,346.97 59.57,506.56 7.88,19.45 16.4,38.62 25.54,57.52 6.5,13.43 26.51,1.68 20.03,-11.71l0 0z"/>
   <path class="fil4" d="M3219.66 1476.82c-1.54,-28.01 -2.57,-56.6 -2.57,-84.83 0,-98.23 10.44,-196.46 30.81,-292.47 26.31,-123.86 69.45,-244.06 127.38,-356.61 32.63,-63.25 70.27,-123.98 112.01,-181.47 8.8,-12.08 -11.32,-23.67 -20.03,-11.71 -75.04,103.59 -136.42,217.31 -181.28,337.28 -44.92,119.8 -74.1,245.7 -85.94,373.19 -4.12,43.43 -6.18,87.55 -6.18,131.33 0,28.38 0.86,57.11 2.57,85.33 0.9,14.83 24.11,14.94 23.2,0l0.03 -0.04z"/>
   <path class="fil4" d="M1595.87 1797c-0.07,0 -0.14,0 -0.2,0 -84.68,0 -164.54,39.72 -215.57,107.27 -22.18,-9.52 -46.14,-14.47 -70.31,-14.47 -98.24,0 -177.88,79.62 -177.9,177.86l734.63 0c0,0 0,0 0,0 0,-149.46 -121.2,-270.66 -270.65,-270.66 0,0 0,0 0,0l0 0z"/>
  </g>
 </g>
</svg>
